<svg width="1227" height="813" viewBox="0 0 1227 813" fill="none" xmlns="http://www.w3.org/2000/svg">
        <style>
        :root {
        color-scheme: light dark;
        }
        .icon-fill {
        fill: #231F20;
        }
        @media (prefers-color-scheme: dark) {
        .icon-fill {
        fill: #454242;
        }
        }
    </style>
    <circle cx="606.5" cy="316.5" r="238.5" fill="white"/>
    <path fill-rule="evenodd" clip-rule="evenodd"
          d="M752.386 446.186C742.385 439.814 739.442 426.541 745.814 416.539L754.368 403.111L761.287 389.819L767.022 375.976L771.527 361.685L774.771 347.056L776.726 332.2L777.38 317.23L776.726 302.261L774.771 287.405L771.527 272.776L767.022 258.485L761.287 244.641L754.368 231.35L746.317 218.713L737.196 206.825L727.073 195.778L716.025 185.654L704.137 176.533L691.5 168.482L678.209 161.563L664.365 155.829L650.075 151.323L635.446 148.08L620.59 146.124L605.62 145.47L590.65 146.124L575.794 148.08L561.165 151.323L546.874 155.829L533.031 161.563L519.739 168.482L507.102 176.533L495.214 185.654L484.167 195.778L474.044 206.825L464.922 218.713L456.871 231.35L449.952 244.641L444.218 258.485L439.712 272.776L436.469 287.405L434.513 302.26L433.86 317.231L434.513 332.2L436.469 347.056L439.712 361.686L444.218 375.976L449.952 389.819L456.871 403.111L464.922 415.748L474.044 427.636L484.8 439.374C492.812 448.118 492.219 461.701 483.476 469.712C474.732 477.724 461.15 477.131 453.138 468.388L441.115 455.267L429.71 440.404L419.644 424.604L410.993 407.986L403.824 390.678L398.191 372.811L394.136 354.521L391.691 335.947L390.873 317.23L391.691 298.514L394.136 279.94L398.191 261.65L403.824 243.783L410.993 226.475L419.644 209.857L429.71 194.057L441.114 179.194L453.771 165.382L467.583 152.725L482.446 141.321L498.247 131.255L514.864 122.604L532.172 115.435L550.039 109.801L568.329 105.747L586.903 103.301L605.62 102.484L624.336 103.301L642.91 105.747L661.2 109.801L679.067 115.435L696.375 122.604L712.993 131.255L728.793 141.321L743.656 152.725L757.468 165.382L770.125 179.194L781.53 194.057L791.596 209.857L800.246 226.475L807.415 243.783L813.049 261.65L817.104 279.94L819.549 298.514L820.366 317.23L819.549 335.947L817.104 354.521L813.049 372.811L807.415 390.678L800.246 407.986L791.596 424.604L782.033 439.613C775.662 449.615 762.388 452.558 752.386 446.186Z"
          fill="#800080" fill-opacity="0.15"/>
    <path d="M542.029 286V232.4L544.589 235.12H528.829V230H547.789V286H542.029ZM565.496 286.4C564.322 286.4 563.309 285.973 562.456 285.12C561.656 284.267 561.256 283.227 561.256 282C561.256 280.72 561.656 279.68 562.456 278.88C563.309 278.08 564.322 277.68 565.496 277.68C566.669 277.68 567.656 278.08 568.456 278.88C569.309 279.68 569.736 280.72 569.736 282C569.736 283.227 569.309 284.267 568.456 285.12C567.656 285.973 566.669 286.4 565.496 286.4ZM599.589 286.48C595.269 286.48 591.429 285.36 588.069 283.12C584.709 280.827 582.069 277.573 580.149 273.36C578.229 269.093 577.269 263.973 577.269 258C577.269 252.027 578.229 246.933 580.149 242.72C582.069 238.453 584.709 235.2 588.069 232.96C591.429 230.667 595.269 229.52 599.589 229.52C603.909 229.52 607.749 230.667 611.109 232.96C614.469 235.2 617.109 238.453 619.029 242.72C621.003 246.933 621.989 252.027 621.989 258C621.989 263.973 621.003 269.093 619.029 273.36C617.109 277.573 614.469 280.827 611.109 283.12C607.749 285.36 603.909 286.48 599.589 286.48ZM599.589 281.2C602.896 281.2 605.776 280.32 608.229 278.56C610.683 276.747 612.603 274.133 613.989 270.72C615.376 267.253 616.069 263.013 616.069 258C616.069 252.987 615.376 248.773 613.989 245.36C612.603 241.893 610.683 239.28 608.229 237.52C605.776 235.707 602.896 234.8 599.589 234.8C596.389 234.8 593.536 235.707 591.029 237.52C588.523 239.28 586.576 241.893 585.189 245.36C583.803 248.773 583.109 252.987 583.109 258C583.109 263.013 583.803 267.253 585.189 270.72C586.576 274.133 588.523 276.747 591.029 278.56C593.536 280.32 596.389 281.2 599.589 281.2ZM639.998 286V232.4L642.558 235.12H626.798V230H645.758V286H639.998ZM668.904 286V232.4L671.464 235.12H655.704V230H674.664V286H668.904Z"
          fill="#231F20" fill-opacity="0.15"/>
    <path d="M544.403 351.904V349.616L560.727 329.2H564.247L548.055 349.616L546.339 349.088H571.111V351.904H544.403ZM561.783 360V351.904L561.871 349.088V341.96H564.951V360H561.783ZM577.256 360.22C576.61 360.22 576.053 359.985 575.584 359.516C575.144 359.047 574.924 358.475 574.924 357.8C574.924 357.096 575.144 356.524 575.584 356.084C576.053 355.644 576.61 355.424 577.256 355.424C577.901 355.424 578.444 355.644 578.884 356.084C579.353 356.524 579.588 357.096 579.588 357.8C579.588 358.475 579.353 359.047 578.884 359.516C578.444 359.985 577.901 360.22 577.256 360.22ZM584.062 360V357.756L596.866 345.216C598.039 344.072 598.919 343.075 599.506 342.224C600.092 341.344 600.488 340.523 600.694 339.76C600.899 338.997 601.002 338.279 601.002 337.604C601.002 335.815 600.386 334.407 599.154 333.38C597.951 332.353 596.162 331.84 593.786 331.84C591.967 331.84 590.354 332.119 588.946 332.676C587.567 333.233 586.379 334.099 585.382 335.272L583.138 333.336C584.34 331.928 585.88 330.843 587.758 330.08C589.635 329.317 591.732 328.936 594.05 328.936C596.132 328.936 597.936 329.273 599.462 329.948C600.987 330.593 602.16 331.547 602.982 332.808C603.832 334.069 604.258 335.551 604.258 337.252C604.258 338.249 604.111 339.232 603.818 340.2C603.554 341.168 603.055 342.195 602.322 343.28C601.618 344.336 600.576 345.539 599.198 346.888L587.45 358.416L586.57 357.184H605.666V360H584.062ZM628.065 342.928C626.774 342.928 625.586 342.62 624.501 342.004C623.445 341.359 622.609 340.523 621.993 339.496C621.377 338.44 621.069 337.252 621.069 335.932C621.069 334.641 621.377 333.468 621.993 332.412C622.609 331.356 623.445 330.52 624.501 329.904C625.586 329.288 626.774 328.98 628.065 328.98C629.385 328.98 630.573 329.288 631.629 329.904C632.714 330.52 633.565 331.356 634.181 332.412C634.797 333.468 635.105 334.641 635.105 335.932C635.105 337.223 634.797 338.396 634.181 339.452C633.565 340.508 632.714 341.359 631.629 342.004C630.573 342.62 629.385 342.928 628.065 342.928ZM628.109 341.08C629.048 341.08 629.898 340.845 630.661 340.376C631.453 339.907 632.069 339.291 632.509 338.528C632.949 337.765 633.169 336.9 633.169 335.932C633.169 334.964 632.949 334.099 632.509 333.336C632.069 332.544 631.453 331.928 630.661 331.488C629.898 331.048 629.048 330.828 628.109 330.828C627.141 330.828 626.261 331.048 625.469 331.488C624.706 331.928 624.105 332.544 623.665 333.336C623.225 334.099 623.005 334.964 623.005 335.932C623.005 336.9 623.225 337.78 623.665 338.572C624.105 339.335 624.706 339.951 625.469 340.42C626.261 340.86 627.141 341.08 628.109 341.08ZM656.124 360.264C653.807 360.264 651.666 359.883 649.7 359.12C647.735 358.328 646.034 357.228 644.596 355.82C643.159 354.412 642.03 352.755 641.208 350.848C640.416 348.941 640.02 346.859 640.02 344.6C640.02 342.341 640.416 340.259 641.208 338.352C642.03 336.445 643.159 334.788 644.596 333.38C646.063 331.972 647.779 330.887 649.744 330.124C651.71 329.332 653.851 328.936 656.168 328.936C658.398 328.936 660.495 329.317 662.46 330.08C664.426 330.813 666.083 331.928 667.432 333.424L665.364 335.492C664.103 334.201 662.71 333.277 661.184 332.72C659.659 332.133 658.016 331.84 656.256 331.84C654.408 331.84 652.692 332.163 651.108 332.808C649.524 333.424 648.146 334.319 646.972 335.492C645.799 336.636 644.875 337.985 644.2 339.54C643.555 341.065 643.232 342.752 643.232 344.6C643.232 346.448 643.555 348.149 644.2 349.704C644.875 351.229 645.799 352.579 646.972 353.752C648.146 354.896 649.524 355.791 651.108 356.436C652.692 357.052 654.408 357.36 656.256 357.36C658.016 357.36 659.659 357.067 661.184 356.48C662.71 355.893 664.103 354.955 665.364 353.664L667.432 355.732C666.083 357.228 664.426 358.357 662.46 359.12C660.495 359.883 658.383 360.264 656.124 360.264Z"
          fill="#231F20" fill-opacity="0.15"/>
    <path d="M532.156 493V472.648H524.284V470.6H542.396V472.648H534.524V493H532.156ZM545.699 493V476.2H547.971V493H545.699ZM546.851 472.488C546.382 472.488 545.987 472.328 545.667 472.008C545.347 471.688 545.187 471.304 545.187 470.856C545.187 470.408 545.347 470.035 545.667 469.736C545.987 469.416 546.382 469.256 546.851 469.256C547.321 469.256 547.715 469.405 548.035 469.704C548.355 470.003 548.515 470.376 548.515 470.824C548.515 471.293 548.355 471.688 548.035 472.008C547.737 472.328 547.342 472.488 546.851 472.488ZM554.293 493V469.256H556.565V493H554.293ZM568.293 493.16C566.714 493.16 565.498 492.733 564.645 491.88C563.791 491.027 563.365 489.821 563.365 488.264V472.488H565.637V488.136C565.637 489.117 565.882 489.875 566.373 490.408C566.885 490.941 567.61 491.208 568.549 491.208C569.551 491.208 570.383 490.92 571.045 490.344L571.845 491.976C571.397 492.381 570.853 492.68 570.213 492.872C569.594 493.064 568.954 493.16 568.293 493.16ZM560.357 478.088V476.2H570.757V478.088H560.357ZM584.836 493V470.6H593.22C595.118 470.6 596.75 470.909 598.116 471.528C599.481 472.125 600.526 473 601.252 474.152C601.998 475.283 602.372 476.659 602.372 478.28C602.372 479.859 601.998 481.224 601.252 482.376C600.526 483.507 599.481 484.381 598.116 485C596.75 485.619 595.118 485.928 593.22 485.928H586.148L587.204 484.808V493H584.836ZM587.204 485L586.148 483.848H593.156C595.396 483.848 597.092 483.368 598.244 482.408C599.417 481.427 600.003 480.051 600.003 478.28C600.003 476.488 599.417 475.101 598.244 474.12C597.092 473.139 595.396 472.648 593.156 472.648H586.148L587.204 471.528V485ZM614.268 493.16C612.839 493.16 611.591 492.893 610.524 492.36C609.458 491.827 608.626 491.027 608.028 489.96C607.452 488.893 607.164 487.56 607.164 485.96V476.2H609.436V485.704C609.436 487.496 609.874 488.851 610.748 489.768C611.644 490.664 612.892 491.112 614.492 491.112C615.666 491.112 616.679 490.877 617.532 490.408C618.407 489.917 619.068 489.213 619.516 488.296C619.986 487.379 620.22 486.28 620.22 485V476.2H622.492V493H620.316V488.392L620.668 489.224C620.135 490.461 619.303 491.432 618.172 492.136C617.063 492.819 615.762 493.16 614.268 493.16ZM628.824 493V476.2H631V480.776L630.776 479.976C631.246 478.696 632.035 477.725 633.144 477.064C634.254 476.381 635.63 476.04 637.272 476.04V478.248C637.187 478.248 637.102 478.248 637.016 478.248C636.931 478.227 636.846 478.216 636.76 478.216C634.99 478.216 633.603 478.76 632.6 479.848C631.598 480.915 631.096 482.44 631.096 484.424V493H628.824ZM650.09 493.16C648.639 493.16 647.327 492.829 646.154 492.168C644.981 491.485 644.042 490.515 643.338 489.256C642.655 487.976 642.314 486.419 642.314 484.584C642.314 482.749 642.655 481.203 643.338 479.944C644.021 478.664 644.949 477.693 646.122 477.032C647.295 476.371 648.618 476.04 650.09 476.04C651.69 476.04 653.119 476.403 654.378 477.128C655.658 477.832 656.661 478.835 657.386 480.136C658.111 481.416 658.474 482.899 658.474 484.584C658.474 486.291 658.111 487.784 657.386 489.064C656.661 490.344 655.658 491.347 654.378 492.072C653.119 492.797 651.69 493.16 650.09 493.16ZM641.418 499.208V476.2H643.594V481.256L643.37 484.616L643.69 488.008V499.208H641.418ZM649.93 491.144C651.125 491.144 652.191 490.877 653.13 490.344C654.069 489.789 654.815 489.021 655.37 488.04C655.925 487.037 656.202 485.885 656.202 484.584C656.202 483.283 655.925 482.141 655.37 481.16C654.815 480.179 654.069 479.411 653.13 478.856C652.191 478.301 651.125 478.024 649.93 478.024C648.735 478.024 647.658 478.301 646.698 478.856C645.759 479.411 645.013 480.179 644.458 481.16C643.925 482.141 643.658 483.283 643.658 484.584C643.658 485.885 643.925 487.037 644.458 488.04C645.013 489.021 645.759 489.789 646.698 490.344C647.658 490.877 648.735 491.144 649.93 491.144ZM663.106 493V469.256H665.378V493H663.106ZM678.835 493.16C677.086 493.16 675.55 492.797 674.227 492.072C672.905 491.325 671.87 490.312 671.123 489.032C670.377 487.731 670.003 486.248 670.003 484.584C670.003 482.92 670.355 481.448 671.059 480.168C671.785 478.888 672.766 477.885 674.003 477.16C675.262 476.413 676.67 476.04 678.227 476.04C679.806 476.04 681.203 476.403 682.419 477.128C683.657 477.832 684.627 478.835 685.331 480.136C686.035 481.416 686.387 482.899 686.387 484.584C686.387 484.691 686.377 484.808 686.355 484.936C686.355 485.043 686.355 485.16 686.355 485.288H671.731V483.592H685.139L684.243 484.264C684.243 483.048 683.977 481.971 683.443 481.032C682.931 480.072 682.227 479.325 681.331 478.792C680.435 478.259 679.401 477.992 678.227 477.992C677.075 477.992 676.041 478.259 675.123 478.792C674.206 479.325 673.491 480.072 672.979 481.032C672.467 481.992 672.211 483.091 672.211 484.328V484.68C672.211 485.96 672.489 487.091 673.043 488.072C673.619 489.032 674.409 489.789 675.411 490.344C676.435 490.877 677.598 491.144 678.899 491.144C679.923 491.144 680.873 490.963 681.747 490.6C682.643 490.237 683.411 489.683 684.051 488.936L685.331 490.408C684.585 491.304 683.646 491.987 682.515 492.456C681.406 492.925 680.179 493.16 678.835 493.16Z"
          fill="#231F20" fill-opacity="0.15"/>
    <line x1="606" y1="56" x2="606" y2="438" stroke="#339AF0" stroke-width="10"/>
    <line x1="845" y1="437" x2="368" y2="437" stroke="#339AF0" stroke-width="10"/>
    <path d="M606.5 0C431.142 0 289 142.134 289 317.483C289 434.75 352.638 556.121 447.181 623.722C456.425 630.31 467.393 634 478.741 634H734.224C745.572 634 756.575 630.31 765.785 623.722C860.362 556.121 923.965 434.75 923.965 317.483C924 142.134 781.858 0 606.5 0ZM606.5 555.535C474.775 555.535 367.987 448.753 367.987 317.034C367.987 185.316 474.775 78.4998 606.5 78.4998C738.225 78.4998 845.013 185.282 845.013 317C845.013 448.718 738.225 555.5 606.5 555.5V555.535Z"
          class="icon-fill" fill="#231F20"/>
    <path d="M428.783 712.6H432.943V735H428.783V712.6ZM417.199 735H413.039V712.6H417.199V735ZM429.103 725.4H416.847V721.848H429.103V725.4ZM449.09 735V731.544L448.866 730.808V724.76C448.866 723.587 448.514 722.68 447.81 722.04C447.106 721.379 446.039 721.048 444.61 721.048C443.65 721.048 442.7 721.197 441.762 721.496C440.844 721.795 440.066 722.211 439.426 722.744L437.858 719.832C438.775 719.128 439.863 718.605 441.122 718.264C442.402 717.901 443.724 717.72 445.09 717.72C447.564 717.72 449.474 718.317 450.818 719.512C452.183 720.685 452.866 722.509 452.866 724.984V735H449.09ZM443.714 735.224C442.434 735.224 441.314 735.011 440.354 734.584C439.394 734.136 438.647 733.528 438.114 732.76C437.602 731.971 437.346 731.085 437.346 730.104C437.346 729.144 437.57 728.28 438.018 727.512C438.487 726.744 439.244 726.136 440.29 725.688C441.335 725.24 442.722 725.016 444.45 725.016H449.41V727.672H444.738C443.372 727.672 442.455 727.896 441.986 728.344C441.516 728.771 441.282 729.304 441.282 729.944C441.282 730.669 441.57 731.245 442.146 731.672C442.722 732.099 443.522 732.312 444.546 732.312C445.527 732.312 446.402 732.088 447.17 731.64C447.959 731.192 448.524 730.531 448.866 729.656L449.538 732.056C449.154 733.059 448.46 733.837 447.458 734.392C446.476 734.947 445.228 735.224 443.714 735.224ZM467.471 735.224C466.02 735.224 464.73 734.904 463.599 734.264C462.468 733.624 461.572 732.664 460.911 731.384C460.271 730.083 459.951 728.44 459.951 726.456C459.951 724.451 460.282 722.808 460.943 721.528C461.626 720.248 462.532 719.299 463.663 718.68C464.815 718.04 466.084 717.72 467.471 717.72C469.156 717.72 470.639 718.083 471.919 718.808C473.22 719.533 474.244 720.547 474.991 721.848C475.759 723.149 476.143 724.685 476.143 726.456C476.143 728.227 475.759 729.763 474.991 731.064C474.244 732.365 473.22 733.389 471.919 734.136C470.639 734.861 469.156 735.224 467.471 735.224ZM457.999 735V711.256H461.999V721.88L461.679 726.424L461.807 730.968V735H457.999ZM467.023 731.8C467.983 731.8 468.836 731.587 469.583 731.16C470.351 730.733 470.959 730.115 471.407 729.304C471.855 728.493 472.079 727.544 472.079 726.456C472.079 725.347 471.855 724.397 471.407 723.608C470.959 722.797 470.351 722.179 469.583 721.752C468.836 721.325 467.983 721.112 467.023 721.112C466.063 721.112 465.199 721.325 464.431 721.752C463.663 722.179 463.055 722.797 462.607 723.608C462.159 724.397 461.935 725.347 461.935 726.456C461.935 727.544 462.159 728.493 462.607 729.304C463.055 730.115 463.663 730.733 464.431 731.16C465.199 731.587 466.063 731.8 467.023 731.8ZM479.937 735V717.912H483.937V735H479.937ZM481.953 715.096C481.206 715.096 480.587 714.861 480.097 714.392C479.627 713.923 479.393 713.357 479.393 712.696C479.393 712.013 479.627 711.448 480.097 711C480.587 710.531 481.206 710.296 481.953 710.296C482.699 710.296 483.307 710.52 483.777 710.968C484.267 711.395 484.513 711.939 484.513 712.6C484.513 713.304 484.278 713.901 483.809 714.392C483.339 714.861 482.721 715.096 481.953 715.096ZM489.187 735V711.256H493.187V735H489.187ZM498.437 735V717.912H502.437V735H498.437ZM500.453 715.096C499.706 715.096 499.087 714.861 498.597 714.392C498.127 713.923 497.893 713.357 497.893 712.696C497.893 712.013 498.127 711.448 498.597 711C499.087 710.531 499.706 710.296 500.453 710.296C501.199 710.296 501.807 710.52 502.277 710.968C502.767 711.395 503.013 711.939 503.013 712.6C503.013 713.304 502.778 713.901 502.309 714.392C501.839 714.861 501.221 715.096 500.453 715.096ZM514.119 735.224C512.241 735.224 510.791 734.744 509.766 733.784C508.743 732.803 508.231 731.363 508.231 729.464V714.136H512.231V729.368C512.231 730.179 512.433 730.808 512.839 731.256C513.265 731.704 513.852 731.928 514.599 731.928C515.495 731.928 516.241 731.693 516.839 731.224L517.959 734.072C517.489 734.456 516.913 734.744 516.231 734.936C515.548 735.128 514.844 735.224 514.119 735.224ZM505.415 721.24V718.04H516.807V721.24H505.415ZM531.777 735V731.544L531.553 730.808V724.76C531.553 723.587 531.201 722.68 530.497 722.04C529.793 721.379 528.726 721.048 527.297 721.048C526.337 721.048 525.388 721.197 524.449 721.496C523.532 721.795 522.753 722.211 522.113 722.744L520.545 719.832C521.462 719.128 522.55 718.605 523.809 718.264C525.089 717.901 526.412 717.72 527.777 717.72C530.252 717.72 532.161 718.317 533.505 719.512C534.87 720.685 535.553 722.509 535.553 724.984V735H531.777ZM526.401 735.224C525.121 735.224 524.001 735.011 523.041 734.584C522.081 734.136 521.334 733.528 520.801 732.76C520.289 731.971 520.033 731.085 520.033 730.104C520.033 729.144 520.257 728.28 520.705 727.512C521.174 726.744 521.932 726.136 522.977 725.688C524.022 725.24 525.409 725.016 527.137 725.016H532.097V727.672H527.425C526.06 727.672 525.142 727.896 524.673 728.344C524.204 728.771 523.969 729.304 523.969 729.944C523.969 730.669 524.257 731.245 524.833 731.672C525.409 732.099 526.209 732.312 527.233 732.312C528.214 732.312 529.089 732.088 529.857 731.64C530.646 731.192 531.212 730.531 531.553 729.656L532.225 732.056C531.841 733.059 531.148 733.837 530.145 734.392C529.164 734.947 527.916 735.224 526.401 735.224ZM540.687 735V717.912H544.495V722.616L544.047 721.24C544.559 720.088 545.359 719.213 546.447 718.616C547.556 718.019 548.932 717.72 550.575 717.72V721.528C550.404 721.485 550.244 721.464 550.095 721.464C549.945 721.443 549.796 721.432 549.647 721.432C548.132 721.432 546.927 721.88 546.031 722.776C545.135 723.651 544.687 724.963 544.687 726.712V735H540.687ZM570.648 735.224C568.898 735.224 567.341 734.851 565.976 734.104C564.61 733.336 563.533 732.291 562.744 730.968C561.954 729.645 561.56 728.141 561.56 726.456C561.56 724.749 561.954 723.245 562.744 721.944C563.533 720.621 564.61 719.587 565.976 718.84C567.341 718.093 568.898 717.72 570.648 717.72C572.418 717.72 573.986 718.093 575.352 718.84C576.738 719.587 577.816 720.611 578.584 721.912C579.373 723.213 579.768 724.728 579.768 726.456C579.768 728.141 579.373 729.645 578.584 730.968C577.816 732.291 576.738 733.336 575.352 734.104C573.986 734.851 572.418 735.224 570.648 735.224ZM570.648 731.8C571.629 731.8 572.504 731.587 573.272 731.16C574.04 730.733 574.637 730.115 575.064 729.304C575.512 728.493 575.736 727.544 575.736 726.456C575.736 725.347 575.512 724.397 575.064 723.608C574.637 722.797 574.04 722.179 573.272 721.752C572.504 721.325 571.64 721.112 570.68 721.112C569.698 721.112 568.824 721.325 568.056 721.752C567.309 722.179 566.712 722.797 566.264 723.608C565.816 724.397 565.592 725.347 565.592 726.456C565.592 727.544 565.816 728.493 566.264 729.304C566.712 730.115 567.309 730.733 568.056 731.16C568.824 731.587 569.688 731.8 570.648 731.8ZM376.95 774.224C375.307 774.224 373.824 773.861 372.502 773.136C371.2 772.389 370.176 771.365 369.43 770.064C368.683 768.763 368.31 767.227 368.31 765.456C368.31 763.685 368.683 762.149 369.43 760.848C370.176 759.547 371.2 758.533 372.502 757.808C373.824 757.083 375.307 756.72 376.95 756.72C378.379 756.72 379.659 757.04 380.79 757.68C381.92 758.299 382.816 759.248 383.478 760.528C384.139 761.808 384.47 763.451 384.47 765.456C384.47 767.44 384.15 769.083 383.51 770.384C382.87 771.664 381.984 772.624 380.854 773.264C379.723 773.904 378.422 774.224 376.95 774.224ZM377.43 770.8C378.39 770.8 379.243 770.587 379.99 770.16C380.758 769.733 381.366 769.115 381.814 768.304C382.283 767.493 382.518 766.544 382.518 765.456C382.518 764.347 382.283 763.397 381.814 762.608C381.366 761.797 380.758 761.179 379.99 760.752C379.243 760.325 378.39 760.112 377.43 760.112C376.47 760.112 375.606 760.325 374.838 760.752C374.091 761.179 373.483 761.797 373.014 762.608C372.566 763.397 372.342 764.347 372.342 765.456C372.342 766.544 372.566 767.493 373.014 768.304C373.483 769.115 374.091 769.733 374.838 770.16C375.606 770.587 376.47 770.8 377.43 770.8ZM382.614 774V769.968L382.774 765.424L382.454 760.88V750.256H386.422V774H382.614ZM399.719 774.224C397.82 774.224 396.156 773.851 394.727 773.104C393.319 772.336 392.22 771.291 391.431 769.968C390.663 768.645 390.279 767.141 390.279 765.456C390.279 763.749 390.652 762.245 391.399 760.944C392.167 759.621 393.212 758.587 394.535 757.84C395.879 757.093 397.404 756.72 399.111 756.72C400.775 756.72 402.257 757.083 403.559 757.808C404.86 758.533 405.884 759.557 406.631 760.88C407.377 762.203 407.751 763.76 407.751 765.552C407.751 765.723 407.74 765.915 407.719 766.128C407.719 766.341 407.708 766.544 407.687 766.736H393.447V764.08H405.575L404.007 764.912C404.028 763.931 403.825 763.067 403.399 762.32C402.972 761.573 402.385 760.987 401.639 760.56C400.913 760.133 400.071 759.92 399.111 759.92C398.129 759.92 397.265 760.133 396.519 760.56C395.793 760.987 395.217 761.584 394.791 762.352C394.385 763.099 394.183 763.984 394.183 765.008V765.648C394.183 766.672 394.417 767.579 394.887 768.368C395.356 769.157 396.017 769.765 396.871 770.192C397.724 770.619 398.705 770.832 399.815 770.832C400.775 770.832 401.639 770.683 402.407 770.384C403.175 770.085 403.857 769.616 404.455 768.976L406.599 771.44C405.831 772.336 404.86 773.029 403.687 773.52C402.535 773.989 401.212 774.224 399.719 774.224ZM416.873 774.224C415.443 774.224 414.067 774.043 412.745 773.68C411.443 773.296 410.409 772.837 409.641 772.304L411.177 769.264C411.945 769.755 412.862 770.16 413.929 770.48C414.995 770.8 416.062 770.96 417.129 770.96C418.387 770.96 419.294 770.789 419.849 770.448C420.425 770.107 420.713 769.648 420.713 769.072C420.713 768.603 420.521 768.251 420.137 768.016C419.753 767.76 419.251 767.568 418.633 767.44C418.014 767.312 417.321 767.195 416.553 767.088C415.806 766.981 415.049 766.843 414.281 766.672C413.534 766.48 412.851 766.213 412.233 765.872C411.614 765.509 411.113 765.029 410.729 764.432C410.345 763.835 410.153 763.045 410.153 762.064C410.153 760.976 410.462 760.037 411.081 759.248C411.699 758.437 412.563 757.819 413.673 757.392C414.803 756.944 416.137 756.72 417.673 756.72C418.825 756.72 419.987 756.848 421.161 757.104C422.334 757.36 423.305 757.723 424.073 758.192L422.537 761.232C421.726 760.741 420.905 760.411 420.073 760.24C419.262 760.048 418.451 759.952 417.641 759.952C416.425 759.952 415.518 760.133 414.921 760.496C414.345 760.859 414.057 761.317 414.057 761.872C414.057 762.384 414.249 762.768 414.633 763.024C415.017 763.28 415.518 763.483 416.137 763.632C416.755 763.781 417.438 763.909 418.185 764.016C418.953 764.101 419.71 764.24 420.457 764.432C421.203 764.624 421.886 764.891 422.505 765.232C423.145 765.552 423.657 766.011 424.041 766.608C424.425 767.205 424.617 767.984 424.617 768.944C424.617 770.011 424.297 770.939 423.657 771.728C423.038 772.517 422.153 773.136 421.001 773.584C419.849 774.011 418.473 774.224 416.873 774.224ZM437.758 756.72C439.123 756.72 440.339 756.987 441.406 757.52C442.494 758.053 443.347 758.875 443.966 759.984C444.584 761.072 444.894 762.48 444.894 764.208V774H440.894V764.72C440.894 763.205 440.531 762.075 439.806 761.328C439.102 760.581 438.11 760.208 436.83 760.208C435.891 760.208 435.059 760.4 434.334 760.784C433.608 761.168 433.043 761.744 432.638 762.512C432.254 763.259 432.062 764.208 432.062 765.36V774H428.062V750.256H432.062V761.52L431.198 760.112C431.795 759.024 432.659 758.192 433.79 757.616C434.942 757.019 436.264 756.72 437.758 756.72ZM460.496 774V770.544L460.272 769.808V763.76C460.272 762.587 459.92 761.68 459.216 761.04C458.512 760.379 457.445 760.048 456.016 760.048C455.056 760.048 454.106 760.197 453.168 760.496C452.25 760.795 451.472 761.211 450.832 761.744L449.264 758.832C450.181 758.128 451.269 757.605 452.528 757.264C453.808 756.901 455.13 756.72 456.496 756.72C458.97 756.72 460.88 757.317 462.224 758.512C463.589 759.685 464.272 761.509 464.272 763.984V774H460.496ZM455.12 774.224C453.84 774.224 452.72 774.011 451.76 773.584C450.8 773.136 450.053 772.528 449.52 771.76C449.008 770.971 448.752 770.085 448.752 769.104C448.752 768.144 448.976 767.28 449.424 766.512C449.893 765.744 450.65 765.136 451.696 764.688C452.741 764.24 454.128 764.016 455.856 764.016H460.816V766.672H456.144C454.778 766.672 453.861 766.896 453.392 767.344C452.922 767.771 452.688 768.304 452.688 768.944C452.688 769.669 452.976 770.245 453.552 770.672C454.128 771.099 454.928 771.312 455.952 771.312C456.933 771.312 457.808 771.088 458.576 770.64C459.365 770.192 459.93 769.531 460.272 768.656L460.944 771.056C460.56 772.059 459.866 772.837 458.864 773.392C457.882 773.947 456.634 774.224 455.12 774.224ZM478.877 774.224C477.427 774.224 476.136 773.904 475.005 773.264C473.875 772.624 472.979 771.664 472.317 770.384C471.677 769.083 471.357 767.44 471.357 765.456C471.357 763.451 471.688 761.808 472.349 760.528C473.032 759.248 473.939 758.299 475.069 757.68C476.221 757.04 477.491 756.72 478.877 756.72C480.563 756.72 482.045 757.083 483.325 757.808C484.627 758.533 485.651 759.547 486.397 760.848C487.165 762.149 487.549 763.685 487.549 765.456C487.549 767.227 487.165 768.763 486.397 770.064C485.651 771.365 484.627 772.389 483.325 773.136C482.045 773.861 480.563 774.224 478.877 774.224ZM469.405 774V750.256H473.405V760.88L473.085 765.424L473.213 769.968V774H469.405ZM478.429 770.8C479.389 770.8 480.243 770.587 480.989 770.16C481.757 769.733 482.365 769.115 482.813 768.304C483.261 767.493 483.485 766.544 483.485 765.456C483.485 764.347 483.261 763.397 482.813 762.608C482.365 761.797 481.757 761.179 480.989 760.752C480.243 760.325 479.389 760.112 478.429 760.112C477.469 760.112 476.605 760.325 475.837 760.752C475.069 761.179 474.461 761.797 474.013 762.608C473.565 763.397 473.341 764.347 473.341 765.456C473.341 766.544 473.565 767.493 474.013 768.304C474.461 769.115 475.069 769.733 475.837 770.16C476.605 770.587 477.469 770.8 478.429 770.8ZM491.343 774V756.912H495.343V774H491.343ZM493.359 754.096C492.612 754.096 491.993 753.861 491.503 753.392C491.033 752.923 490.799 752.357 490.799 751.696C490.799 751.013 491.033 750.448 491.503 750C491.993 749.531 492.612 749.296 493.359 749.296C494.105 749.296 494.713 749.52 495.183 749.968C495.673 750.395 495.919 750.939 495.919 751.6C495.919 752.304 495.684 752.901 495.215 753.392C494.745 753.861 494.127 754.096 493.359 754.096ZM500.593 774V750.256H504.593V774H500.593ZM509.843 774V756.912H513.843V774H509.843ZM511.859 754.096C511.112 754.096 510.493 753.861 510.003 753.392C509.533 752.923 509.299 752.357 509.299 751.696C509.299 751.013 509.533 750.448 510.003 750C510.493 749.531 511.112 749.296 511.859 749.296C512.605 749.296 513.213 749.52 513.683 749.968C514.173 750.395 514.419 750.939 514.419 751.6C514.419 752.304 514.184 752.901 513.715 753.392C513.245 753.861 512.627 754.096 511.859 754.096ZM525.525 774.224C523.647 774.224 522.197 773.744 521.173 772.784C520.149 771.803 519.637 770.363 519.637 768.464V753.136H523.637V768.368C523.637 769.179 523.839 769.808 524.245 770.256C524.671 770.704 525.258 770.928 526.005 770.928C526.901 770.928 527.647 770.693 528.245 770.224L529.365 773.072C528.895 773.456 528.319 773.744 527.637 773.936C526.954 774.128 526.25 774.224 525.525 774.224ZM516.821 760.24V757.04H528.213V760.24H516.821ZM543.183 774V770.544L542.959 769.808V763.76C542.959 762.587 542.607 761.68 541.903 761.04C541.199 760.379 540.133 760.048 538.703 760.048C537.743 760.048 536.794 760.197 535.855 760.496C534.938 760.795 534.159 761.211 533.519 761.744L531.951 758.832C532.869 758.128 533.957 757.605 535.215 757.264C536.495 756.901 537.818 756.72 539.183 756.72C541.658 756.72 543.567 757.317 544.911 758.512C546.277 759.685 546.959 761.509 546.959 763.984V774H543.183ZM537.807 774.224C536.527 774.224 535.407 774.011 534.447 773.584C533.487 773.136 532.741 772.528 532.207 771.76C531.695 770.971 531.439 770.085 531.439 769.104C531.439 768.144 531.663 767.28 532.111 766.512C532.581 765.744 533.338 765.136 534.383 764.688C535.429 764.24 536.815 764.016 538.543 764.016H543.503V766.672H538.831C537.466 766.672 536.549 766.896 536.079 767.344C535.61 767.771 535.375 768.304 535.375 768.944C535.375 769.669 535.663 770.245 536.239 770.672C536.815 771.099 537.615 771.312 538.639 771.312C539.621 771.312 540.495 771.088 541.263 770.64C542.053 770.192 542.618 769.531 542.959 768.656L543.631 771.056C543.247 772.059 542.554 772.837 541.551 773.392C540.57 773.947 539.322 774.224 537.807 774.224ZM552.093 774V756.912H555.901V761.616L555.453 760.24C555.965 759.088 556.765 758.213 557.853 757.616C558.962 757.019 560.338 756.72 561.981 756.72V760.528C561.81 760.485 561.65 760.464 561.501 760.464C561.351 760.443 561.202 760.432 561.053 760.432C559.538 760.432 558.333 760.88 557.437 761.776C556.541 762.651 556.093 763.963 556.093 765.712V774H552.093ZM579.302 774V755.12H571.878V751.6H590.886V755.12H583.462V774H579.302ZM593.624 774V756.912H597.624V774H593.624ZM595.64 754.096C594.893 754.096 594.275 753.861 593.784 753.392C593.315 752.923 593.08 752.357 593.08 751.696C593.08 751.013 593.315 750.448 593.784 750C594.275 749.531 594.893 749.296 595.64 749.296C596.387 749.296 596.995 749.52 597.464 749.968C597.955 750.395 598.2 750.939 598.2 751.6C598.2 752.304 597.965 752.901 597.496 753.392C597.027 753.861 596.408 754.096 595.64 754.096ZM602.874 774V750.256H606.874V774H602.874ZM619.4 774.224C617.522 774.224 616.072 773.744 615.048 772.784C614.024 771.803 613.512 770.363 613.512 768.464V753.136H617.512V768.368C617.512 769.179 617.714 769.808 618.12 770.256C618.546 770.704 619.133 770.928 619.88 770.928C620.776 770.928 621.522 770.693 622.12 770.224L623.24 773.072C622.77 773.456 622.194 773.744 621.512 773.936C620.829 774.128 620.125 774.224 619.4 774.224ZM610.696 760.24V757.04H622.088V760.24H610.696Z"
          fill="#808080"/>
    <path d="M997.28 133.32C995.531 133.32 993.856 133.075 992.256 132.584C990.656 132.072 989.387 131.421 988.448 130.632L989.888 127.4C990.784 128.104 991.893 128.691 993.216 129.16C994.539 129.629 995.893 129.864 997.28 129.864C998.453 129.864 999.403 129.736 1000.13 129.48C1000.85 129.224 1001.39 128.883 1001.73 128.456C1002.07 128.008 1002.24 127.507 1002.24 126.952C1002.24 126.269 1001.99 125.725 1001.5 125.32C1001.01 124.893 1000.37 124.563 999.584 124.328C998.816 124.072 997.952 123.837 996.992 123.624C996.053 123.411 995.104 123.165 994.144 122.888C993.205 122.589 992.341 122.216 991.552 121.768C990.784 121.299 990.155 120.68 989.664 119.912C989.173 119.144 988.928 118.163 988.928 116.968C988.928 115.752 989.248 114.643 989.888 113.64C990.549 112.616 991.541 111.805 992.864 111.208C994.208 110.589 995.904 110.28 997.952 110.28C999.296 110.28 1000.63 110.451 1001.95 110.792C1003.27 111.133 1004.43 111.624 1005.41 112.264L1004.1 115.496C1003.09 114.899 1002.06 114.461 1000.99 114.184C999.925 113.885 998.901 113.736 997.92 113.736C996.768 113.736 995.829 113.875 995.104 114.152C994.4 114.429 993.877 114.792 993.536 115.24C993.216 115.688 993.056 116.2 993.056 116.776C993.056 117.459 993.291 118.013 993.76 118.44C994.251 118.845 994.88 119.165 995.648 119.4C996.437 119.635 997.312 119.869 998.272 120.104C999.232 120.317 1000.18 120.563 1001.12 120.84C1002.08 121.117 1002.94 121.48 1003.71 121.928C1004.5 122.376 1005.13 122.984 1005.6 123.752C1006.09 124.52 1006.34 125.491 1006.34 126.664C1006.34 127.859 1006.01 128.968 1005.34 129.992C1004.7 130.995 1003.71 131.805 1002.37 132.424C1001.02 133.021 999.328 133.32 997.28 133.32ZM1010.08 133V115.912H1014.08V133H1010.08ZM1012.09 113.096C1011.35 113.096 1010.73 112.861 1010.24 112.392C1009.77 111.923 1009.53 111.357 1009.53 110.696C1009.53 110.013 1009.77 109.448 1010.24 109C1010.73 108.531 1011.35 108.296 1012.09 108.296C1012.84 108.296 1013.45 108.52 1013.92 108.968C1014.41 109.395 1014.65 109.939 1014.65 110.6C1014.65 111.304 1014.42 111.901 1013.95 112.392C1013.48 112.861 1012.86 113.096 1012.09 113.096ZM1027.07 139.432C1025.49 139.432 1023.95 139.219 1022.43 138.792C1020.94 138.387 1019.71 137.789 1018.75 137L1020.54 133.992C1021.29 134.611 1022.23 135.101 1023.36 135.464C1024.51 135.848 1025.67 136.04 1026.85 136.04C1028.72 136.04 1030.1 135.603 1030.98 134.728C1031.85 133.875 1032.29 132.584 1032.29 130.856V127.816L1032.61 123.944L1032.48 120.072V115.912H1036.29V130.408C1036.29 133.501 1035.5 135.773 1033.92 137.224C1032.34 138.696 1030.06 139.432 1027.07 139.432ZM1026.56 132.232C1024.94 132.232 1023.47 131.891 1022.14 131.208C1020.84 130.504 1019.81 129.533 1019.04 128.296C1018.29 127.059 1017.92 125.608 1017.92 123.944C1017.92 122.301 1018.29 120.861 1019.04 119.624C1019.81 118.387 1020.84 117.427 1022.14 116.744C1023.47 116.061 1024.94 115.72 1026.56 115.72C1028.01 115.72 1029.31 116.008 1030.46 116.584C1031.62 117.16 1032.53 118.056 1033.22 119.272C1033.92 120.488 1034.27 122.045 1034.27 123.944C1034.27 125.843 1033.92 127.411 1033.22 128.648C1032.53 129.864 1031.62 130.771 1030.46 131.368C1029.31 131.944 1028.01 132.232 1026.56 132.232ZM1027.17 128.84C1028.17 128.84 1029.07 128.637 1029.86 128.232C1030.64 127.805 1031.25 127.229 1031.68 126.504C1032.13 125.757 1032.35 124.904 1032.35 123.944C1032.35 122.984 1032.13 122.141 1031.68 121.416C1031.25 120.669 1030.64 120.104 1029.86 119.72C1029.07 119.315 1028.17 119.112 1027.17 119.112C1026.16 119.112 1025.26 119.315 1024.45 119.72C1023.66 120.104 1023.04 120.669 1022.59 121.416C1022.16 122.141 1021.95 122.984 1021.95 123.944C1021.95 124.904 1022.16 125.757 1022.59 126.504C1023.04 127.229 1023.66 127.805 1024.45 128.232C1025.26 128.637 1026.16 128.84 1027.17 128.84ZM1048.78 133.224C1047.33 133.224 1046.05 132.957 1044.94 132.424C1043.83 131.869 1042.96 131.037 1042.35 129.928C1041.73 128.797 1041.42 127.379 1041.42 125.672V115.912H1045.42V125.128C1045.42 126.664 1045.76 127.816 1046.44 128.584C1047.15 129.331 1048.14 129.704 1049.42 129.704C1050.36 129.704 1051.17 129.512 1051.85 129.128C1052.55 128.744 1053.1 128.168 1053.48 127.4C1053.89 126.632 1054.09 125.683 1054.09 124.552V115.912H1058.09V133H1054.28V128.392L1054.95 129.8C1054.38 130.909 1053.54 131.763 1052.43 132.36C1051.32 132.936 1050.1 133.224 1048.78 133.224ZM1063.33 133V115.912H1067.33V133H1063.33ZM1065.34 113.096C1064.6 113.096 1063.98 112.861 1063.49 112.392C1063.02 111.923 1062.78 111.357 1062.78 110.696C1062.78 110.013 1063.02 109.448 1063.49 109C1063.98 108.531 1064.6 108.296 1065.34 108.296C1066.09 108.296 1066.7 108.52 1067.17 108.968C1067.66 109.395 1067.9 109.939 1067.9 110.6C1067.9 111.304 1067.67 111.901 1067.2 112.392C1066.73 112.861 1066.11 113.096 1065.34 113.096ZM1080.61 133.224C1078.71 133.224 1077.05 132.851 1075.62 132.104C1074.21 131.336 1073.11 130.291 1072.32 128.968C1071.55 127.645 1071.17 126.141 1071.17 124.456C1071.17 122.749 1071.54 121.245 1072.29 119.944C1073.06 118.621 1074.1 117.587 1075.43 116.84C1076.77 116.093 1078.29 115.72 1080 115.72C1081.67 115.72 1083.15 116.083 1084.45 116.808C1085.75 117.533 1086.77 118.557 1087.52 119.88C1088.27 121.203 1088.64 122.76 1088.64 124.552C1088.64 124.723 1088.63 124.915 1088.61 125.128C1088.61 125.341 1088.6 125.544 1088.58 125.736H1074.34V123.08H1086.47L1084.9 123.912C1084.92 122.931 1084.72 122.067 1084.29 121.32C1083.86 120.573 1083.28 119.987 1082.53 119.56C1081.8 119.133 1080.96 118.92 1080 118.92C1079.02 118.92 1078.16 119.133 1077.41 119.56C1076.68 119.987 1076.11 120.584 1075.68 121.352C1075.28 122.099 1075.07 122.984 1075.07 124.008V124.648C1075.07 125.672 1075.31 126.579 1075.78 127.368C1076.25 128.157 1076.91 128.765 1077.76 129.192C1078.61 129.619 1079.6 129.832 1080.71 129.832C1081.67 129.832 1082.53 129.683 1083.3 129.384C1084.07 129.085 1084.75 128.616 1085.35 127.976L1087.49 130.44C1086.72 131.336 1085.75 132.029 1084.58 132.52C1083.43 132.989 1082.1 133.224 1080.61 133.224ZM1102.18 115.72C1103.54 115.72 1104.76 115.987 1105.83 116.52C1106.92 117.053 1107.77 117.875 1108.39 118.984C1109.01 120.072 1109.32 121.48 1109.32 123.208V133H1105.32V123.72C1105.32 122.205 1104.95 121.075 1104.23 120.328C1103.52 119.581 1102.53 119.208 1101.25 119.208C1100.31 119.208 1099.48 119.4 1098.76 119.784C1098.03 120.168 1097.46 120.744 1097.06 121.512C1096.68 122.259 1096.48 123.208 1096.48 124.36V133H1092.48V115.912H1096.29V120.52L1095.62 119.112C1096.22 118.024 1097.08 117.192 1098.21 116.616C1099.36 116.019 1100.69 115.72 1102.18 115.72ZM1120.82 133.224C1118.94 133.224 1117.49 132.744 1116.47 131.784C1115.45 130.803 1114.93 129.363 1114.93 127.464V112.136H1118.93V127.368C1118.93 128.179 1119.14 128.808 1119.54 129.256C1119.97 129.704 1120.55 129.928 1121.3 129.928C1122.2 129.928 1122.94 129.693 1123.54 129.224L1124.66 132.072C1124.19 132.456 1123.62 132.744 1122.93 132.936C1122.25 133.128 1121.55 133.224 1120.82 133.224ZM1112.12 119.24V116.04H1123.51V119.24H1112.12ZM1135.42 133.224C1133.52 133.224 1131.86 132.851 1130.43 132.104C1129.02 131.336 1127.92 130.291 1127.13 128.968C1126.37 127.645 1125.98 126.141 1125.98 124.456C1125.98 122.749 1126.35 121.245 1127.1 119.944C1127.87 118.621 1128.91 117.587 1130.24 116.84C1131.58 116.093 1133.11 115.72 1134.81 115.72C1136.48 115.72 1137.96 116.083 1139.26 116.808C1140.56 117.533 1141.59 118.557 1142.33 119.88C1143.08 121.203 1143.45 122.76 1143.45 124.552C1143.45 124.723 1143.44 124.915 1143.42 125.128C1143.42 125.341 1143.41 125.544 1143.39 125.736H1129.15V123.08H1141.28L1139.71 123.912C1139.73 122.931 1139.53 122.067 1139.1 121.32C1138.67 120.573 1138.09 119.987 1137.34 119.56C1136.62 119.133 1135.77 118.92 1134.81 118.92C1133.83 118.92 1132.97 119.133 1132.22 119.56C1131.5 119.987 1130.92 120.584 1130.49 121.352C1130.09 122.099 1129.89 122.984 1129.89 124.008V124.648C1129.89 125.672 1130.12 126.579 1130.59 127.368C1131.06 128.157 1131.72 128.765 1132.57 129.192C1133.43 129.619 1134.41 129.832 1135.52 129.832C1136.48 129.832 1137.34 129.683 1138.11 129.384C1138.88 129.085 1139.56 128.616 1140.16 127.976L1142.3 130.44C1141.53 131.336 1140.56 132.029 1139.39 132.52C1138.24 132.989 1136.91 133.224 1135.42 133.224ZM1161.07 133V114.12H1153.64V110.6H1172.65V114.12H1165.23V133H1161.07ZM1175.39 133V115.912H1179.39V133H1175.39ZM1177.41 113.096C1176.66 113.096 1176.04 112.861 1175.55 112.392C1175.08 111.923 1174.85 111.357 1174.85 110.696C1174.85 110.013 1175.08 109.448 1175.55 109C1176.04 108.531 1176.66 108.296 1177.41 108.296C1178.15 108.296 1178.76 108.52 1179.23 108.968C1179.72 109.395 1179.97 109.939 1179.97 110.6C1179.97 111.304 1179.73 111.901 1179.26 112.392C1178.79 112.861 1178.17 113.096 1177.41 113.096ZM1184.64 133V109.256H1188.64V133H1184.64ZM1201.17 133.224C1199.29 133.224 1197.84 132.744 1196.81 131.784C1195.79 130.803 1195.28 129.363 1195.28 127.464V112.136H1199.28V127.368C1199.28 128.179 1199.48 128.808 1199.89 129.256C1200.31 129.704 1200.9 129.928 1201.65 129.928C1202.54 129.928 1203.29 129.693 1203.89 129.224L1205.01 132.072C1204.54 132.456 1203.96 132.744 1203.28 132.936C1202.59 133.128 1201.89 133.224 1201.17 133.224ZM1192.46 119.24V116.04H1203.85V119.24H1192.46Z"
          fill="#808080"/>
    <path d="M32.1525 334L42.2325 311.6H46.3285L56.4405 334H52.0885L43.4165 313.808H45.0805L36.4405 334H32.1525ZM36.7925 328.816L37.9125 325.552H50.0085L51.1285 328.816H36.7925ZM68.6013 316.72C69.9666 316.72 71.1826 316.987 72.2493 317.52C73.3373 318.053 74.1906 318.875 74.8093 319.984C75.4279 321.072 75.7373 322.48 75.7373 324.208V334H71.7373V324.72C71.7373 323.205 71.3746 322.075 70.6493 321.328C69.9453 320.581 68.9533 320.208 67.6733 320.208C66.7346 320.208 65.9026 320.4 65.1773 320.784C64.4519 321.168 63.8866 321.744 63.4813 322.512C63.0973 323.259 62.9053 324.208 62.9053 325.36V334H58.9053V316.912H62.7133V321.52L62.0413 320.112C62.6386 319.024 63.5026 318.192 64.6333 317.616C65.7853 317.019 67.1079 316.72 68.6013 316.72ZM87.2435 334.224C85.3662 334.224 83.9155 333.744 82.8915 332.784C81.8675 331.803 81.3555 330.363 81.3555 328.464V313.136H85.3555V328.368C85.3555 329.179 85.5582 329.808 85.9635 330.256C86.3902 330.704 86.9768 330.928 87.7235 330.928C88.6195 330.928 89.3662 330.693 89.9635 330.224L91.0835 333.072C90.6142 333.456 90.0382 333.744 89.3555 333.936C88.6728 334.128 87.9688 334.224 87.2435 334.224ZM78.5395 320.24V317.04H89.9315V320.24H78.5395ZM101.844 334.224C99.9448 334.224 98.2808 333.851 96.8515 333.104C95.4435 332.336 94.3448 331.291 93.5555 329.968C92.7875 328.645 92.4035 327.141 92.4035 325.456C92.4035 323.749 92.7768 322.245 93.5235 320.944C94.2915 319.621 95.3368 318.587 96.6595 317.84C98.0035 317.093 99.5288 316.72 101.236 316.72C102.9 316.72 104.382 317.083 105.684 317.808C106.985 318.533 108.009 319.557 108.756 320.88C109.502 322.203 109.876 323.76 109.876 325.552C109.876 325.723 109.865 325.915 109.844 326.128C109.844 326.341 109.833 326.544 109.812 326.736H95.5715V324.08H107.7L106.132 324.912C106.153 323.931 105.95 323.067 105.524 322.32C105.097 321.573 104.51 320.987 103.764 320.56C103.038 320.133 102.196 319.92 101.236 319.92C100.254 319.92 99.3902 320.133 98.6435 320.56C97.9182 320.987 97.3422 321.584 96.9155 322.352C96.5102 323.099 96.3075 323.984 96.3075 325.008V325.648C96.3075 326.672 96.5422 327.579 97.0115 328.368C97.4808 329.157 98.1422 329.765 98.9955 330.192C99.8488 330.619 100.83 330.832 101.94 330.832C102.9 330.832 103.764 330.683 104.532 330.384C105.3 330.085 105.982 329.616 106.58 328.976L108.724 331.44C107.956 332.336 106.985 333.029 105.812 333.52C104.66 333.989 103.337 334.224 101.844 334.224ZM113.718 334V316.912H117.526V321.616L117.078 320.24C117.59 319.088 118.39 318.213 119.478 317.616C120.587 317.019 121.963 316.72 123.606 316.72V320.528C123.435 320.485 123.275 320.464 123.126 320.464C122.976 320.443 122.827 320.432 122.678 320.432C121.163 320.432 119.958 320.88 119.062 321.776C118.166 322.651 117.718 323.963 117.718 325.712V334H113.718ZM126.999 334V316.912H130.999V334H126.999ZM129.015 314.096C128.268 314.096 127.65 313.861 127.159 313.392C126.69 312.923 126.455 312.357 126.455 311.696C126.455 311.013 126.69 310.448 127.159 310C127.65 309.531 128.268 309.296 129.015 309.296C129.762 309.296 130.37 309.52 130.839 309.968C131.33 310.395 131.575 310.939 131.575 311.6C131.575 312.304 131.34 312.901 130.871 313.392C130.402 313.861 129.783 314.096 129.015 314.096ZM143.929 334.224C142.18 334.224 140.622 333.851 139.257 333.104C137.892 332.336 136.814 331.291 136.025 329.968C135.236 328.645 134.841 327.141 134.841 325.456C134.841 323.749 135.236 322.245 136.025 320.944C136.814 319.621 137.892 318.587 139.257 317.84C140.622 317.093 142.18 316.72 143.929 316.72C145.7 316.72 147.268 317.093 148.633 317.84C150.02 318.587 151.097 319.611 151.865 320.912C152.654 322.213 153.049 323.728 153.049 325.456C153.049 327.141 152.654 328.645 151.865 329.968C151.097 331.291 150.02 332.336 148.633 333.104C147.268 333.851 145.7 334.224 143.929 334.224ZM143.929 330.8C144.91 330.8 145.785 330.587 146.553 330.16C147.321 329.733 147.918 329.115 148.345 328.304C148.793 327.493 149.017 326.544 149.017 325.456C149.017 324.347 148.793 323.397 148.345 322.608C147.918 321.797 147.321 321.179 146.553 320.752C145.785 320.325 144.921 320.112 143.961 320.112C142.98 320.112 142.105 320.325 141.337 320.752C140.59 321.179 139.993 321.797 139.545 322.608C139.097 323.397 138.873 324.347 138.873 325.456C138.873 326.544 139.097 327.493 139.545 328.304C139.993 329.115 140.59 329.733 141.337 330.16C142.105 330.587 142.969 330.8 143.929 330.8ZM156.874 334V316.912H160.682V321.616L160.234 320.24C160.746 319.088 161.546 318.213 162.634 317.616C163.743 317.019 165.119 316.72 166.762 316.72V320.528C166.591 320.485 166.431 320.464 166.282 320.464C166.133 320.443 165.983 320.432 165.834 320.432C164.319 320.432 163.114 320.88 162.218 321.776C161.322 322.651 160.874 323.963 160.874 325.712V334H156.874ZM184.083 334V315.12H176.659V311.6H195.667V315.12H188.243V334H184.083ZM198.405 334V316.912H202.405V334H198.405ZM200.421 314.096C199.675 314.096 199.056 313.861 198.565 313.392C198.096 312.923 197.861 312.357 197.861 311.696C197.861 311.013 198.096 310.448 198.565 310C199.056 309.531 199.675 309.296 200.421 309.296C201.168 309.296 201.776 309.52 202.245 309.968C202.736 310.395 202.981 310.939 202.981 311.6C202.981 312.304 202.747 312.901 202.277 313.392C201.808 313.861 201.189 314.096 200.421 314.096ZM207.655 334V310.256H211.655V334H207.655ZM224.181 334.224C222.304 334.224 220.853 333.744 219.829 332.784C218.805 331.803 218.293 330.363 218.293 328.464V313.136H222.293V328.368C222.293 329.179 222.496 329.808 222.901 330.256C223.328 330.704 223.914 330.928 224.661 330.928C225.557 330.928 226.304 330.693 226.901 330.224L228.021 333.072C227.552 333.456 226.976 333.744 226.293 333.936C225.61 334.128 224.906 334.224 224.181 334.224ZM215.477 320.24V317.04H226.869V320.24H215.477Z"
          fill="#808080"/>
    <path d="M202 279L230.077 285.711L221.85 258.04L202 279ZM490 319L491.912 317.39C463.217 283.314 371.045 229.914 222.919 270.173L223.575 272.586L224.231 274.998C370.721 235.183 460.8 288.207 488.088 320.61L490 319Z"
          fill="#808080"/>
    <path d="M552.985 698.983L580.7 690.909L559.851 670.944L552.985 698.983ZM607.145 503L604.702 503.527C622.593 586.404 592.612 649.1 566.601 681.161L568.542 682.736L570.484 684.311C597.247 651.322 627.863 587.118 609.589 502.472L607.145 503Z"
          fill="#808080"/>
    <path d="M965.987 127.046L943.669 108.737L938.971 137.22L965.987 127.046ZM706 294.42L708.08 295.807C802.086 154.878 894.334 123.938 943.696 125.884L943.795 123.386L943.893 120.888C892.237 118.852 798.538 151.186 703.92 293.033L706 294.42Z"
          fill="#808080"/>
</svg>
