<svg width="635" height="634" viewBox="0 0 635 634" fill="none" xmlns="http://www.w3.org/2000/svg">
<circle cx="317.5" cy="316.5" r="238.5" fill="white"/>
<path fill-rule="evenodd" clip-rule="evenodd" d="M463.386 446.186C453.385 439.814 450.442 426.541 456.814 416.539L465.369 403.111L472.287 389.819L478.022 375.976L482.527 361.685L485.771 347.056L487.726 332.2L488.38 317.23L487.726 302.261L485.771 287.405L482.527 272.776L478.022 258.485L472.287 244.641L465.369 231.35L457.318 218.713L448.196 206.825L438.073 195.778L427.025 185.654L415.137 176.533L402.5 168.482L389.209 161.563L375.365 155.829L361.075 151.323L346.446 148.08L331.59 146.124L316.62 145.47L301.65 146.124L286.794 148.08L272.165 151.323L257.874 155.829L244.031 161.563L230.74 168.482L218.102 176.533L206.215 185.654L195.167 195.778L185.044 206.825L175.922 218.713L167.871 231.35L160.952 244.641L155.218 258.485L150.712 272.776L147.469 287.405L145.513 302.26L144.86 317.231L145.513 332.2L147.469 347.056L150.712 361.686L155.218 375.976L160.952 389.819L167.871 403.111L175.922 415.748L185.044 427.636L195.8 439.374C203.812 448.118 203.219 461.701 194.476 469.712C185.732 477.724 172.15 477.131 164.138 468.388L152.115 455.267L140.71 440.404L130.644 424.604L121.994 407.986L114.824 390.678L109.191 372.811L105.136 354.521L102.691 335.947L101.873 317.23L102.691 298.514L105.136 279.94L109.191 261.65L114.824 243.783L121.994 226.475L130.644 209.857L140.71 194.057L152.115 179.194L164.771 165.382L178.584 152.725L193.446 141.321L209.247 131.255L225.864 122.604L243.172 115.435L261.039 109.801L279.329 105.747L297.903 103.301L316.62 102.484L335.336 103.301L353.91 105.747L372.2 109.801L390.067 115.435L407.376 122.604L423.993 131.255L439.793 141.321L454.656 152.725L468.468 165.382L481.125 179.194L492.53 194.057L502.596 209.857L511.246 226.475L518.415 243.783L524.049 261.65L528.104 279.94L530.549 298.514L531.366 317.23L530.549 335.947L528.104 354.521L524.049 372.811L518.415 390.678L511.246 407.986L502.596 424.604L493.033 439.613C486.662 449.615 473.388 452.558 463.386 446.186Z" fill="#808080"/>
<path d="M264.422 493V472.648H256.55V470.6H274.662V472.648H266.79V493H264.422ZM277.965 493V476.2H280.237V493H277.965ZM279.117 472.488C278.648 472.488 278.253 472.328 277.933 472.008C277.613 471.688 277.453 471.304 277.453 470.856C277.453 470.408 277.613 470.035 277.933 469.736C278.253 469.416 278.648 469.256 279.117 469.256C279.586 469.256 279.981 469.405 280.301 469.704C280.621 470.003 280.781 470.376 280.781 470.824C280.781 471.293 280.621 471.688 280.301 472.008C280.002 472.328 279.608 472.488 279.117 472.488ZM286.559 493V469.256H288.831V493H286.559ZM300.558 493.16C298.979 493.16 297.763 492.733 296.91 491.88C296.057 491.027 295.63 489.821 295.63 488.264V472.488H297.902V488.136C297.902 489.117 298.147 489.875 298.638 490.408C299.15 490.941 299.875 491.208 300.814 491.208C301.817 491.208 302.649 490.92 303.31 490.344L304.11 491.976C303.662 492.381 303.118 492.68 302.478 492.872C301.859 493.064 301.219 493.16 300.558 493.16ZM292.622 478.088V476.2H303.022V478.088H292.622ZM317.101 493V470.6H325.485C327.384 470.6 329.016 470.909 330.381 471.528C331.746 472.125 332.792 473 333.517 474.152C334.264 475.283 334.637 476.659 334.637 478.28C334.637 479.859 334.264 481.224 333.517 482.376C332.792 483.507 331.746 484.381 330.381 485C329.016 485.597 327.384 485.896 325.485 485.896H318.413L319.469 484.808V493H317.101ZM332.397 493L326.637 484.872H329.197L334.989 493H332.397ZM319.469 485L318.413 483.88H325.421C327.661 483.88 329.357 483.389 330.509 482.408C331.682 481.427 332.269 480.051 332.269 478.28C332.269 476.488 331.682 475.101 330.509 474.12C329.357 473.139 327.661 472.648 325.421 472.648H318.413L319.469 471.528V485ZM346.882 493.16C345.133 493.16 343.597 492.797 342.274 492.072C340.951 491.325 339.917 490.312 339.17 489.032C338.423 487.731 338.05 486.248 338.05 484.584C338.05 482.92 338.402 481.448 339.106 480.168C339.831 478.888 340.813 477.885 342.05 477.16C343.309 476.413 344.717 476.04 346.274 476.04C347.853 476.04 349.25 476.403 350.466 477.128C351.703 477.832 352.674 478.835 353.378 480.136C354.082 481.416 354.434 482.899 354.434 484.584C354.434 484.691 354.423 484.808 354.402 484.936C354.402 485.043 354.402 485.16 354.402 485.288H339.778V483.592H353.186L352.29 484.264C352.29 483.048 352.023 481.971 351.49 481.032C350.978 480.072 350.274 479.325 349.378 478.792C348.482 478.259 347.447 477.992 346.274 477.992C345.122 477.992 344.087 478.259 343.17 478.792C342.253 479.325 341.538 480.072 341.026 481.032C340.514 481.992 340.258 483.091 340.258 484.328V484.68C340.258 485.96 340.535 487.091 341.09 488.072C341.666 489.032 342.455 489.789 343.458 490.344C344.482 490.877 345.645 491.144 346.946 491.144C347.97 491.144 348.919 490.963 349.794 490.6C350.69 490.237 351.458 489.683 352.098 488.936L353.378 490.408C352.631 491.304 351.693 491.987 350.562 492.456C349.453 492.925 348.226 493.16 346.882 493.16ZM365.747 493.16C364.147 493.16 362.707 492.797 361.427 492.072C360.168 491.347 359.176 490.344 358.451 489.064C357.725 487.763 357.363 486.269 357.363 484.584C357.363 482.877 357.725 481.384 358.451 480.104C359.176 478.824 360.168 477.832 361.427 477.128C362.707 476.403 364.147 476.04 365.747 476.04C367.219 476.04 368.531 476.371 369.683 477.032C370.856 477.693 371.784 478.664 372.467 479.944C373.171 481.203 373.523 482.749 373.523 484.584C373.523 486.397 373.181 487.944 372.499 489.224C371.816 490.504 370.888 491.485 369.715 492.168C368.563 492.829 367.24 493.16 365.747 493.16ZM365.907 491.144C367.101 491.144 368.168 490.877 369.107 490.344C370.067 489.789 370.813 489.021 371.347 488.04C371.901 487.037 372.179 485.885 372.179 484.584C372.179 483.261 371.901 482.109 371.347 481.128C370.813 480.147 370.067 479.389 369.107 478.856C368.168 478.301 367.101 478.024 365.907 478.024C364.733 478.024 363.677 478.301 362.739 478.856C361.8 479.389 361.053 480.147 360.499 481.128C359.944 482.109 359.667 483.261 359.667 484.584C359.667 485.885 359.944 487.037 360.499 488.04C361.053 489.021 361.8 489.789 362.739 490.344C363.677 490.877 364.733 491.144 365.907 491.144ZM372.243 493V487.944L372.467 484.552L372.147 481.16V469.256H374.419V493H372.243Z" fill="#231F20"/>
<path d="M317.5 0C142.142 0 0 142.134 0 317.483C0 434.75 63.638 556.121 158.181 623.722C167.425 630.31 178.393 634 189.741 634H445.224C456.572 634 467.575 630.31 476.785 623.722C571.362 556.121 634.965 434.75 634.965 317.483C635 142.134 492.858 0 317.5 0ZM317.5 555.535C185.775 555.535 78.987 448.753 78.987 317.034C78.987 185.316 185.775 78.4998 317.5 78.4998C449.225 78.4998 556.013 185.282 556.013 317C556.013 448.718 449.225 555.5 317.5 555.5V555.535Z" fill="#231F20"/>
</svg>
