<svg width="1190" height="813" viewBox="0 0 1190 813" fill="none" xmlns="http://www.w3.org/2000/svg">
    <style>
        :root {
        color-scheme: light dark;
        }
        .icon-fill {
        fill: #231F20;
        }
        @media (prefers-color-scheme: dark) {
        .icon-fill {
        fill: #454242;
        }
        }
    </style>
    <circle cx="606.5" cy="316.5" r="238.5" fill="white"/>
    <path fill-rule="evenodd" clip-rule="evenodd"
          d="M752.386 446.186C742.385 439.814 739.442 426.541 745.814 416.539L754.369 403.111L761.287 389.819L767.022 375.976L771.527 361.685L774.771 347.056L776.726 332.2L777.38 317.23L776.726 302.261L774.771 287.405L771.527 272.776L767.022 258.485L761.287 244.641L754.369 231.35L746.318 218.713L737.196 206.825L727.073 195.778L716.025 185.654L704.137 176.533L691.5 168.482L678.209 161.563L664.365 155.829L650.075 151.323L635.446 148.08L620.59 146.124L605.62 145.47L590.65 146.124L575.794 148.08L561.165 151.323L546.874 155.829L533.031 161.563L519.74 168.482L507.102 176.533L495.215 185.654L484.167 195.778L474.044 206.825L464.922 218.713L456.871 231.35L449.952 244.641L444.218 258.485L439.712 272.776L436.469 287.405L434.513 302.26L433.86 317.231L434.513 332.2L436.469 347.056L439.712 361.686L444.218 375.976L449.952 389.819L456.871 403.111L464.922 415.748L474.044 427.636L484.8 439.374C492.812 448.118 492.219 461.701 483.476 469.712C474.732 477.724 461.15 477.131 453.138 468.388L441.115 455.267L429.71 440.404L419.644 424.604L410.994 407.986L403.824 390.678L398.191 372.811L394.136 354.521L391.691 335.947L390.873 317.23L391.691 298.514L394.136 279.94L398.191 261.65L403.824 243.783L410.994 226.475L419.644 209.857L429.71 194.057L441.115 179.194L453.771 165.382L467.584 152.725L482.446 141.321L498.247 131.255L514.864 122.604L532.172 115.435L550.039 109.801L568.33 105.747L586.903 103.301L605.62 102.484L624.336 103.301L642.91 105.747L661.2 109.801L679.067 115.435L696.376 122.604L712.993 131.255L728.793 141.321L743.656 152.725L757.468 165.382L770.125 179.194L781.53 194.057L791.596 209.857L800.246 226.475L807.415 243.783L813.049 261.65L817.104 279.94L819.549 298.514L820.366 317.23L819.549 335.947L817.104 354.521L813.049 372.811L807.415 390.678L800.246 407.986L791.596 424.604L782.033 439.613C775.662 449.615 762.388 452.558 752.386 446.186Z"
          fill="#800080" fill-opacity="0.15"/>
    <path d="M542.029 286V232.4L544.589 235.12H528.829V230H547.789V286H542.029ZM565.496 286.4C564.322 286.4 563.309 285.973 562.456 285.12C561.656 284.267 561.256 283.227 561.256 282C561.256 280.72 561.656 279.68 562.456 278.88C563.309 278.08 564.322 277.68 565.496 277.68C566.669 277.68 567.656 278.08 568.456 278.88C569.309 279.68 569.736 280.72 569.736 282C569.736 283.227 569.309 284.267 568.456 285.12C567.656 285.973 566.669 286.4 565.496 286.4ZM599.589 286.48C595.269 286.48 591.429 285.36 588.069 283.12C584.709 280.827 582.069 277.573 580.149 273.36C578.229 269.093 577.269 263.973 577.269 258C577.269 252.027 578.229 246.933 580.149 242.72C582.069 238.453 584.709 235.2 588.069 232.96C591.429 230.667 595.269 229.52 599.589 229.52C603.909 229.52 607.749 230.667 611.109 232.96C614.469 235.2 617.109 238.453 619.029 242.72C621.003 246.933 621.989 252.027 621.989 258C621.989 263.973 621.003 269.093 619.029 273.36C617.109 277.573 614.469 280.827 611.109 283.12C607.749 285.36 603.909 286.48 599.589 286.48ZM599.589 281.2C602.896 281.2 605.776 280.32 608.229 278.56C610.683 276.747 612.603 274.133 613.989 270.72C615.376 267.253 616.069 263.013 616.069 258C616.069 252.987 615.376 248.773 613.989 245.36C612.603 241.893 610.683 239.28 608.229 237.52C605.776 235.707 602.896 234.8 599.589 234.8C596.389 234.8 593.536 235.707 591.029 237.52C588.523 239.28 586.576 241.893 585.189 245.36C583.803 248.773 583.109 252.987 583.109 258C583.109 263.013 583.803 267.253 585.189 270.72C586.576 274.133 588.523 276.747 591.029 278.56C593.536 280.32 596.389 281.2 599.589 281.2ZM639.998 286V232.4L642.558 235.12H626.798V230H645.758V286H639.998ZM668.904 286V232.4L671.464 235.12H655.704V230H674.664V286H668.904Z"
          fill="#231F20" fill-opacity="0.15"/>
    <path d="M544.403 351.904V349.616L560.727 329.2H564.247L548.055 349.616L546.339 349.088H571.111V351.904H544.403ZM561.783 360V351.904L561.871 349.088V341.96H564.951V360H561.783ZM577.256 360.22C576.61 360.22 576.053 359.985 575.584 359.516C575.144 359.047 574.924 358.475 574.924 357.8C574.924 357.096 575.144 356.524 575.584 356.084C576.053 355.644 576.61 355.424 577.256 355.424C577.901 355.424 578.444 355.644 578.884 356.084C579.353 356.524 579.588 357.096 579.588 357.8C579.588 358.475 579.353 359.047 578.884 359.516C578.444 359.985 577.901 360.22 577.256 360.22ZM584.062 360V357.756L596.866 345.216C598.039 344.072 598.919 343.075 599.506 342.224C600.092 341.344 600.488 340.523 600.694 339.76C600.899 338.997 601.002 338.279 601.002 337.604C601.002 335.815 600.386 334.407 599.154 333.38C597.951 332.353 596.162 331.84 593.786 331.84C591.967 331.84 590.354 332.119 588.946 332.676C587.567 333.233 586.379 334.099 585.382 335.272L583.138 333.336C584.34 331.928 585.88 330.843 587.758 330.08C589.635 329.317 591.732 328.936 594.05 328.936C596.132 328.936 597.936 329.273 599.462 329.948C600.987 330.593 602.16 331.547 602.982 332.808C603.832 334.069 604.258 335.551 604.258 337.252C604.258 338.249 604.111 339.232 603.818 340.2C603.554 341.168 603.055 342.195 602.322 343.28C601.618 344.336 600.576 345.539 599.198 346.888L587.45 358.416L586.57 357.184H605.666V360H584.062ZM628.065 342.928C626.774 342.928 625.586 342.62 624.501 342.004C623.445 341.359 622.609 340.523 621.993 339.496C621.377 338.44 621.069 337.252 621.069 335.932C621.069 334.641 621.377 333.468 621.993 332.412C622.609 331.356 623.445 330.52 624.501 329.904C625.586 329.288 626.774 328.98 628.065 328.98C629.385 328.98 630.573 329.288 631.629 329.904C632.714 330.52 633.565 331.356 634.181 332.412C634.797 333.468 635.105 334.641 635.105 335.932C635.105 337.223 634.797 338.396 634.181 339.452C633.565 340.508 632.714 341.359 631.629 342.004C630.573 342.62 629.385 342.928 628.065 342.928ZM628.109 341.08C629.048 341.08 629.898 340.845 630.661 340.376C631.453 339.907 632.069 339.291 632.509 338.528C632.949 337.765 633.169 336.9 633.169 335.932C633.169 334.964 632.949 334.099 632.509 333.336C632.069 332.544 631.453 331.928 630.661 331.488C629.898 331.048 629.048 330.828 628.109 330.828C627.141 330.828 626.261 331.048 625.469 331.488C624.706 331.928 624.105 332.544 623.665 333.336C623.225 334.099 623.005 334.964 623.005 335.932C623.005 336.9 623.225 337.78 623.665 338.572C624.105 339.335 624.706 339.951 625.469 340.42C626.261 340.86 627.141 341.08 628.109 341.08ZM656.124 360.264C653.807 360.264 651.666 359.883 649.7 359.12C647.735 358.328 646.034 357.228 644.596 355.82C643.159 354.412 642.03 352.755 641.208 350.848C640.416 348.941 640.02 346.859 640.02 344.6C640.02 342.341 640.416 340.259 641.208 338.352C642.03 336.445 643.159 334.788 644.596 333.38C646.063 331.972 647.779 330.887 649.744 330.124C651.71 329.332 653.851 328.936 656.168 328.936C658.398 328.936 660.495 329.317 662.46 330.08C664.426 330.813 666.083 331.928 667.432 333.424L665.364 335.492C664.103 334.201 662.71 333.277 661.184 332.72C659.659 332.133 658.016 331.84 656.256 331.84C654.408 331.84 652.692 332.163 651.108 332.808C649.524 333.424 648.146 334.319 646.972 335.492C645.799 336.636 644.875 337.985 644.2 339.54C643.555 341.065 643.232 342.752 643.232 344.6C643.232 346.448 643.555 348.149 644.2 349.704C644.875 351.229 645.799 352.579 646.972 353.752C648.146 354.896 649.524 355.791 651.108 356.436C652.692 357.052 654.408 357.36 656.256 357.36C658.016 357.36 659.659 357.067 661.184 356.48C662.71 355.893 664.103 354.955 665.364 353.664L667.432 355.732C666.083 357.228 664.426 358.357 662.46 359.12C660.495 359.883 658.383 360.264 656.124 360.264Z"
          fill="#231F20" fill-opacity="0.15"/>
    <path d="M532.156 493V472.648H524.284V470.6H542.396V472.648H534.524V493H532.156ZM545.699 493V476.2H547.971V493H545.699ZM546.851 472.488C546.382 472.488 545.987 472.328 545.667 472.008C545.347 471.688 545.187 471.304 545.187 470.856C545.187 470.408 545.347 470.035 545.667 469.736C545.987 469.416 546.382 469.256 546.851 469.256C547.321 469.256 547.715 469.405 548.035 469.704C548.355 470.003 548.515 470.376 548.515 470.824C548.515 471.293 548.355 471.688 548.035 472.008C547.737 472.328 547.342 472.488 546.851 472.488ZM554.293 493V469.256H556.565V493H554.293ZM568.293 493.16C566.714 493.16 565.498 492.733 564.645 491.88C563.791 491.027 563.365 489.821 563.365 488.264V472.488H565.637V488.136C565.637 489.117 565.882 489.875 566.373 490.408C566.885 490.941 567.61 491.208 568.549 491.208C569.551 491.208 570.383 490.92 571.045 490.344L571.845 491.976C571.397 492.381 570.853 492.68 570.213 492.872C569.594 493.064 568.954 493.16 568.293 493.16ZM560.357 478.088V476.2H570.757V478.088H560.357ZM584.836 493V470.6H593.22C595.118 470.6 596.75 470.909 598.116 471.528C599.481 472.125 600.526 473 601.252 474.152C601.998 475.283 602.372 476.659 602.372 478.28C602.372 479.859 601.998 481.224 601.252 482.376C600.526 483.507 599.481 484.381 598.116 485C596.75 485.619 595.118 485.928 593.22 485.928H586.148L587.204 484.808V493H584.836ZM587.204 485L586.148 483.848H593.156C595.396 483.848 597.092 483.368 598.244 482.408C599.417 481.427 600.003 480.051 600.003 478.28C600.003 476.488 599.417 475.101 598.244 474.12C597.092 473.139 595.396 472.648 593.156 472.648H586.148L587.204 471.528V485ZM614.268 493.16C612.839 493.16 611.591 492.893 610.524 492.36C609.458 491.827 608.626 491.027 608.028 489.96C607.452 488.893 607.164 487.56 607.164 485.96V476.2H609.436V485.704C609.436 487.496 609.874 488.851 610.748 489.768C611.644 490.664 612.892 491.112 614.492 491.112C615.666 491.112 616.679 490.877 617.532 490.408C618.407 489.917 619.068 489.213 619.516 488.296C619.986 487.379 620.22 486.28 620.22 485V476.2H622.492V493H620.316V488.392L620.668 489.224C620.135 490.461 619.303 491.432 618.172 492.136C617.063 492.819 615.762 493.16 614.268 493.16ZM628.824 493V476.2H631V480.776L630.776 479.976C631.246 478.696 632.035 477.725 633.144 477.064C634.254 476.381 635.63 476.04 637.272 476.04V478.248C637.187 478.248 637.102 478.248 637.016 478.248C636.931 478.227 636.846 478.216 636.76 478.216C634.99 478.216 633.603 478.76 632.6 479.848C631.598 480.915 631.096 482.44 631.096 484.424V493H628.824ZM650.09 493.16C648.639 493.16 647.327 492.829 646.154 492.168C644.981 491.485 644.042 490.515 643.338 489.256C642.655 487.976 642.314 486.419 642.314 484.584C642.314 482.749 642.655 481.203 643.338 479.944C644.021 478.664 644.949 477.693 646.122 477.032C647.295 476.371 648.618 476.04 650.09 476.04C651.69 476.04 653.119 476.403 654.378 477.128C655.658 477.832 656.661 478.835 657.386 480.136C658.111 481.416 658.474 482.899 658.474 484.584C658.474 486.291 658.111 487.784 657.386 489.064C656.661 490.344 655.658 491.347 654.378 492.072C653.119 492.797 651.69 493.16 650.09 493.16ZM641.418 499.208V476.2H643.594V481.256L643.37 484.616L643.69 488.008V499.208H641.418ZM649.93 491.144C651.125 491.144 652.191 490.877 653.13 490.344C654.069 489.789 654.815 489.021 655.37 488.04C655.925 487.037 656.202 485.885 656.202 484.584C656.202 483.283 655.925 482.141 655.37 481.16C654.815 480.179 654.069 479.411 653.13 478.856C652.191 478.301 651.125 478.024 649.93 478.024C648.735 478.024 647.658 478.301 646.698 478.856C645.759 479.411 645.013 480.179 644.458 481.16C643.925 482.141 643.658 483.283 643.658 484.584C643.658 485.885 643.925 487.037 644.458 488.04C645.013 489.021 645.759 489.789 646.698 490.344C647.658 490.877 648.735 491.144 649.93 491.144ZM663.106 493V469.256H665.378V493H663.106ZM678.835 493.16C677.086 493.16 675.55 492.797 674.227 492.072C672.905 491.325 671.87 490.312 671.123 489.032C670.377 487.731 670.003 486.248 670.003 484.584C670.003 482.92 670.355 481.448 671.059 480.168C671.785 478.888 672.766 477.885 674.003 477.16C675.262 476.413 676.67 476.04 678.227 476.04C679.806 476.04 681.203 476.403 682.419 477.128C683.657 477.832 684.627 478.835 685.331 480.136C686.035 481.416 686.387 482.899 686.387 484.584C686.387 484.691 686.377 484.808 686.355 484.936C686.355 485.043 686.355 485.16 686.355 485.288H671.731V483.592H685.139L684.243 484.264C684.243 483.048 683.977 481.971 683.443 481.032C682.931 480.072 682.227 479.325 681.331 478.792C680.435 478.259 679.401 477.992 678.227 477.992C677.075 477.992 676.041 478.259 675.123 478.792C674.206 479.325 673.491 480.072 672.979 481.032C672.467 481.992 672.211 483.091 672.211 484.328V484.68C672.211 485.96 672.489 487.091 673.043 488.072C673.619 489.032 674.409 489.789 675.411 490.344C676.435 490.877 677.598 491.144 678.899 491.144C679.923 491.144 680.873 490.963 681.747 490.6C682.643 490.237 683.411 489.683 684.051 488.936L685.331 490.408C684.585 491.304 683.646 491.987 682.515 492.456C681.406 492.925 680.179 493.16 678.835 493.16Z"
          fill="#231F20" fill-opacity="0.15"/>
    <line x1="606" y1="56" x2="606" y2="438" stroke="#339AF0" stroke-width="10"/>
    <line x1="845" y1="437" x2="368" y2="437" stroke="#339AF0" stroke-width="10"/>
    <path class="icon-fill"
          d="M606.5 0C431.142 0 289 142.134 289 317.483C289 434.75 352.638 556.121 447.181 623.722C456.425 630.31 467.393 634 478.741 634H734.224C745.572 634 756.575 630.31 765.785 623.722C860.362 556.121 923.965 434.75 923.965 317.483C924 142.134 781.858 0 606.5 0ZM606.5 555.535C474.775 555.535 367.987 448.753 367.987 317.034C367.987 185.316 474.775 78.4998 606.5 78.4998C738.225 78.4998 845.013 185.282 845.013 317C845.013 448.718 738.225 555.5 606.5 555.5V555.535Z"
          fill="#231F20"/>
    <path d="M423.957 721.912H435.093V725.336H423.957V721.912ZM424.277 731.512H436.917V735H420.117V712.6H436.469V716.088H424.277V731.512ZM450.867 717.72C452.232 717.72 453.448 717.987 454.515 718.52C455.603 719.053 456.456 719.875 457.075 720.984C457.694 722.072 458.003 723.48 458.003 725.208V735H454.003V725.72C454.003 724.205 453.64 723.075 452.915 722.328C452.211 721.581 451.219 721.208 449.939 721.208C449 721.208 448.168 721.4 447.443 721.784C446.718 722.168 446.152 722.744 445.747 723.512C445.363 724.259 445.171 725.208 445.171 726.36V735H441.171V717.912H444.979V722.52L444.307 721.112C444.904 720.024 445.768 719.192 446.899 718.616C448.051 718.019 449.374 717.72 450.867 717.72ZM473.605 735V731.544L473.381 730.808V724.76C473.381 723.587 473.029 722.68 472.325 722.04C471.621 721.379 470.554 721.048 469.125 721.048C468.165 721.048 467.216 721.197 466.277 721.496C465.36 721.795 464.581 722.211 463.941 722.744L462.373 719.832C463.29 719.128 464.378 718.605 465.637 718.264C466.917 717.901 468.24 717.72 469.605 717.72C472.08 717.72 473.989 718.317 475.333 719.512C476.698 720.685 477.381 722.509 477.381 724.984V735H473.605ZM468.229 735.224C466.949 735.224 465.829 735.011 464.869 734.584C463.909 734.136 463.162 733.528 462.629 732.76C462.117 731.971 461.861 731.085 461.861 730.104C461.861 729.144 462.085 728.28 462.533 727.512C463.002 726.744 463.76 726.136 464.805 725.688C465.85 725.24 467.237 725.016 468.965 725.016H473.925V727.672H469.253C467.888 727.672 466.97 727.896 466.501 728.344C466.032 728.771 465.797 729.304 465.797 729.944C465.797 730.669 466.085 731.245 466.661 731.672C467.237 732.099 468.037 732.312 469.061 732.312C470.042 732.312 470.917 732.088 471.685 731.64C472.474 731.192 473.04 730.531 473.381 729.656L474.053 732.056C473.669 733.059 472.976 733.837 471.973 734.392C470.992 734.947 469.744 735.224 468.229 735.224ZM491.987 735.224C490.536 735.224 489.245 734.904 488.115 734.264C486.984 733.624 486.088 732.664 485.427 731.384C484.787 730.083 484.467 728.44 484.467 726.456C484.467 724.451 484.797 722.808 485.459 721.528C486.141 720.248 487.048 719.299 488.179 718.68C489.331 718.04 490.6 717.72 491.987 717.72C493.672 717.72 495.155 718.083 496.435 718.808C497.736 719.533 498.76 720.547 499.507 721.848C500.275 723.149 500.659 724.685 500.659 726.456C500.659 728.227 500.275 729.763 499.507 731.064C498.76 732.365 497.736 733.389 496.435 734.136C495.155 734.861 493.672 735.224 491.987 735.224ZM482.515 735V711.256H486.515V721.88L486.195 726.424L486.323 730.968V735H482.515ZM491.539 731.8C492.499 731.8 493.352 731.587 494.099 731.16C494.867 730.733 495.475 730.115 495.923 729.304C496.371 728.493 496.595 727.544 496.595 726.456C496.595 725.347 496.371 724.397 495.923 723.608C495.475 722.797 494.867 722.179 494.099 721.752C493.352 721.325 492.499 721.112 491.539 721.112C490.579 721.112 489.715 721.325 488.947 721.752C488.179 722.179 487.571 722.797 487.123 723.608C486.675 724.397 486.451 725.347 486.451 726.456C486.451 727.544 486.675 728.493 487.123 729.304C487.571 730.115 488.179 730.733 488.947 731.16C489.715 731.587 490.579 731.8 491.539 731.8ZM504.452 735V711.256H508.452V735H504.452ZM521.734 735.224C519.835 735.224 518.171 734.851 516.742 734.104C515.334 733.336 514.235 732.291 513.446 730.968C512.678 729.645 512.294 728.141 512.294 726.456C512.294 724.749 512.667 723.245 513.414 721.944C514.182 720.621 515.227 719.587 516.55 718.84C517.894 718.093 519.419 717.72 521.126 717.72C522.79 717.72 524.273 718.083 525.574 718.808C526.875 719.533 527.899 720.557 528.646 721.88C529.393 723.203 529.766 724.76 529.766 726.552C529.766 726.723 529.755 726.915 529.734 727.128C529.734 727.341 529.723 727.544 529.702 727.736H515.462V725.08H527.59L526.022 725.912C526.043 724.931 525.841 724.067 525.414 723.32C524.987 722.573 524.401 721.987 523.654 721.56C522.929 721.133 522.086 720.92 521.126 720.92C520.145 720.92 519.281 721.133 518.534 721.56C517.809 721.987 517.233 722.584 516.806 723.352C516.401 724.099 516.198 724.984 516.198 726.008V726.648C516.198 727.672 516.433 728.579 516.902 729.368C517.371 730.157 518.033 730.765 518.886 731.192C519.739 731.619 520.721 731.832 521.83 731.832C522.79 731.832 523.654 731.683 524.422 731.384C525.19 731.085 525.873 730.616 526.47 729.976L528.614 732.44C527.846 733.336 526.875 734.029 525.702 734.52C524.55 734.989 523.227 735.224 521.734 735.224ZM550.132 735.224C548.383 735.224 546.825 734.851 545.46 734.104C544.095 733.336 543.017 732.291 542.228 730.968C541.439 729.645 541.044 728.141 541.044 726.456C541.044 724.749 541.439 723.245 542.228 721.944C543.017 720.621 544.095 719.587 545.46 718.84C546.825 718.093 548.383 717.72 550.132 717.72C551.903 717.72 553.471 718.093 554.836 718.84C556.223 719.587 557.3 720.611 558.068 721.912C558.857 723.213 559.252 724.728 559.252 726.456C559.252 728.141 558.857 729.645 558.068 730.968C557.3 732.291 556.223 733.336 554.836 734.104C553.471 734.851 551.903 735.224 550.132 735.224ZM550.132 731.8C551.113 731.8 551.988 731.587 552.756 731.16C553.524 730.733 554.121 730.115 554.548 729.304C554.996 728.493 555.22 727.544 555.22 726.456C555.22 725.347 554.996 724.397 554.548 723.608C554.121 722.797 553.524 722.179 552.756 721.752C551.988 721.325 551.124 721.112 550.164 721.112C549.183 721.112 548.308 721.325 547.54 721.752C546.793 722.179 546.196 722.797 545.748 723.608C545.3 724.397 545.076 725.347 545.076 726.456C545.076 727.544 545.3 728.493 545.748 729.304C546.196 730.115 546.793 730.733 547.54 731.16C548.308 731.587 549.172 731.8 550.132 731.8ZM563.077 735V717.912H566.885V722.616L566.437 721.24C566.949 720.088 567.749 719.213 568.837 718.616C569.946 718.019 571.322 717.72 572.965 717.72V721.528C572.794 721.485 572.634 721.464 572.485 721.464C572.336 721.443 572.186 721.432 572.037 721.432C570.522 721.432 569.317 721.88 568.421 722.776C567.525 723.651 567.077 724.963 567.077 726.712V735H563.077ZM415.747 774.224C414.104 774.224 412.621 773.861 411.299 773.136C409.997 772.389 408.973 771.365 408.227 770.064C407.48 768.763 407.107 767.227 407.107 765.456C407.107 763.685 407.48 762.149 408.227 760.848C408.973 759.547 409.997 758.533 411.299 757.808C412.621 757.083 414.104 756.72 415.747 756.72C417.176 756.72 418.456 757.04 419.587 757.68C420.717 758.299 421.613 759.248 422.275 760.528C422.936 761.808 423.267 763.451 423.267 765.456C423.267 767.44 422.947 769.083 422.307 770.384C421.667 771.664 420.781 772.624 419.651 773.264C418.52 773.904 417.219 774.224 415.747 774.224ZM416.227 770.8C417.187 770.8 418.04 770.587 418.787 770.16C419.555 769.733 420.163 769.115 420.611 768.304C421.08 767.493 421.315 766.544 421.315 765.456C421.315 764.347 421.08 763.397 420.611 762.608C420.163 761.797 419.555 761.179 418.787 760.752C418.04 760.325 417.187 760.112 416.227 760.112C415.267 760.112 414.403 760.325 413.635 760.752C412.888 761.179 412.28 761.797 411.811 762.608C411.363 763.397 411.139 764.347 411.139 765.456C411.139 766.544 411.363 767.493 411.811 768.304C412.28 769.115 412.888 769.733 413.635 770.16C414.403 770.587 415.267 770.8 416.227 770.8ZM421.411 774V769.968L421.571 765.424L421.251 760.88V750.256H425.219V774H421.411ZM430.483 774V756.912H434.483V774H430.483ZM432.499 754.096C431.753 754.096 431.134 753.861 430.643 753.392C430.174 752.923 429.939 752.357 429.939 751.696C429.939 751.013 430.174 750.448 430.643 750C431.134 749.531 431.753 749.296 432.499 749.296C433.246 749.296 433.854 749.52 434.323 749.968C434.814 750.395 435.059 750.939 435.059 751.6C435.059 752.304 434.825 752.901 434.355 753.392C433.886 753.861 433.267 754.096 432.499 754.096ZM445.013 774.224C443.584 774.224 442.208 774.043 440.885 773.68C439.584 773.296 438.549 772.837 437.781 772.304L439.317 769.264C440.085 769.755 441.003 770.16 442.069 770.48C443.136 770.8 444.203 770.96 445.269 770.96C446.528 770.96 447.435 770.789 447.989 770.448C448.565 770.107 448.853 769.648 448.853 769.072C448.853 768.603 448.661 768.251 448.277 768.016C447.893 767.76 447.392 767.568 446.773 767.44C446.155 767.312 445.461 767.195 444.693 767.088C443.947 766.981 443.189 766.843 442.421 766.672C441.675 766.48 440.992 766.213 440.373 765.872C439.755 765.509 439.253 765.029 438.869 764.432C438.485 763.835 438.293 763.045 438.293 762.064C438.293 760.976 438.603 760.037 439.221 759.248C439.84 758.437 440.704 757.819 441.813 757.392C442.944 756.944 444.277 756.72 445.813 756.72C446.965 756.72 448.128 756.848 449.301 757.104C450.475 757.36 451.445 757.723 452.213 758.192L450.677 761.232C449.867 760.741 449.045 760.411 448.213 760.24C447.403 760.048 446.592 759.952 445.781 759.952C444.565 759.952 443.659 760.133 443.061 760.496C442.485 760.859 442.197 761.317 442.197 761.872C442.197 762.384 442.389 762.768 442.773 763.024C443.157 763.28 443.659 763.483 444.277 763.632C444.896 763.781 445.579 763.909 446.325 764.016C447.093 764.101 447.851 764.24 448.597 764.432C449.344 764.624 450.027 764.891 450.645 765.232C451.285 765.552 451.797 766.011 452.181 766.608C452.565 767.205 452.757 767.984 452.757 768.944C452.757 770.011 452.437 770.939 451.797 771.728C451.179 772.517 450.293 773.136 449.141 773.584C447.989 774.011 446.613 774.224 445.013 774.224ZM466.73 774V770.544L466.506 769.808V763.76C466.506 762.587 466.154 761.68 465.45 761.04C464.746 760.379 463.679 760.048 462.25 760.048C461.29 760.048 460.341 760.197 459.402 760.496C458.485 760.795 457.706 761.211 457.066 761.744L455.498 758.832C456.415 758.128 457.503 757.605 458.762 757.264C460.042 756.901 461.365 756.72 462.73 756.72C465.205 756.72 467.114 757.317 468.458 758.512C469.823 759.685 470.506 761.509 470.506 763.984V774H466.73ZM461.354 774.224C460.074 774.224 458.954 774.011 457.994 773.584C457.034 773.136 456.287 772.528 455.754 771.76C455.242 770.971 454.986 770.085 454.986 769.104C454.986 768.144 455.21 767.28 455.658 766.512C456.127 765.744 456.885 765.136 457.93 764.688C458.975 764.24 460.362 764.016 462.09 764.016H467.05V766.672H462.378C461.013 766.672 460.095 766.896 459.626 767.344C459.157 767.771 458.922 768.304 458.922 768.944C458.922 769.669 459.21 770.245 459.786 770.672C460.362 771.099 461.162 771.312 462.186 771.312C463.167 771.312 464.042 771.088 464.81 770.64C465.599 770.192 466.165 769.531 466.506 768.656L467.178 771.056C466.794 772.059 466.101 772.837 465.098 773.392C464.117 773.947 462.869 774.224 461.354 774.224ZM485.112 774.224C483.661 774.224 482.37 773.904 481.24 773.264C480.109 772.624 479.213 771.664 478.552 770.384C477.912 769.083 477.592 767.44 477.592 765.456C477.592 763.451 477.922 761.808 478.584 760.528C479.266 759.248 480.173 758.299 481.304 757.68C482.456 757.04 483.725 756.72 485.112 756.72C486.797 756.72 488.28 757.083 489.56 757.808C490.861 758.533 491.885 759.547 492.632 760.848C493.4 762.149 493.784 763.685 493.784 765.456C493.784 767.227 493.4 768.763 492.632 770.064C491.885 771.365 490.861 772.389 489.56 773.136C488.28 773.861 486.797 774.224 485.112 774.224ZM475.64 774V750.256H479.64V760.88L479.32 765.424L479.448 769.968V774H475.64ZM484.664 770.8C485.624 770.8 486.477 770.587 487.224 770.16C487.992 769.733 488.6 769.115 489.048 768.304C489.496 767.493 489.72 766.544 489.72 765.456C489.72 764.347 489.496 763.397 489.048 762.608C488.6 761.797 487.992 761.179 487.224 760.752C486.477 760.325 485.624 760.112 484.664 760.112C483.704 760.112 482.84 760.325 482.072 760.752C481.304 761.179 480.696 761.797 480.248 762.608C479.8 763.397 479.576 764.347 479.576 765.456C479.576 766.544 479.8 767.493 480.248 768.304C480.696 769.115 481.304 769.733 482.072 770.16C482.84 770.587 483.704 770.8 484.664 770.8ZM497.577 774V750.256H501.577V774H497.577ZM514.859 774.224C512.96 774.224 511.296 773.851 509.867 773.104C508.459 772.336 507.36 771.291 506.571 769.968C505.803 768.645 505.419 767.141 505.419 765.456C505.419 763.749 505.792 762.245 506.539 760.944C507.307 759.621 508.352 758.587 509.675 757.84C511.019 757.093 512.544 756.72 514.251 756.72C515.915 756.72 517.398 757.083 518.699 757.808C520 758.533 521.024 759.557 521.771 760.88C522.518 762.203 522.891 763.76 522.891 765.552C522.891 765.723 522.88 765.915 522.859 766.128C522.859 766.341 522.848 766.544 522.827 766.736H508.587V764.08H520.715L519.147 764.912C519.168 763.931 518.966 763.067 518.539 762.32C518.112 761.573 517.526 760.987 516.779 760.56C516.054 760.133 515.211 759.92 514.251 759.92C513.27 759.92 512.406 760.133 511.659 760.56C510.934 760.987 510.358 761.584 509.931 762.352C509.526 763.099 509.323 763.984 509.323 765.008V765.648C509.323 766.672 509.558 767.579 510.027 768.368C510.496 769.157 511.158 769.765 512.011 770.192C512.864 770.619 513.846 770.832 514.955 770.832C515.915 770.832 516.779 770.683 517.547 770.384C518.315 770.085 518.998 769.616 519.595 768.976L521.739 771.44C520.971 772.336 520 773.029 518.827 773.52C517.675 773.989 516.352 774.224 514.859 774.224ZM540.505 774V755.12H533.081V751.6H552.089V755.12H544.665V774H540.505ZM554.827 774V756.912H558.827V774H554.827ZM556.843 754.096C556.096 754.096 555.478 753.861 554.987 753.392C554.518 752.923 554.283 752.357 554.283 751.696C554.283 751.013 554.518 750.448 554.987 750C555.478 749.531 556.096 749.296 556.843 749.296C557.59 749.296 558.198 749.52 558.667 749.968C559.158 750.395 559.403 750.939 559.403 751.6C559.403 752.304 559.168 752.901 558.699 753.392C558.23 753.861 557.611 754.096 556.843 754.096ZM564.077 774V750.256H568.077V774H564.077ZM580.603 774.224C578.726 774.224 577.275 773.744 576.251 772.784C575.227 771.803 574.715 770.363 574.715 768.464V753.136H578.715V768.368C578.715 769.179 578.918 769.808 579.323 770.256C579.75 770.704 580.336 770.928 581.083 770.928C581.979 770.928 582.726 770.693 583.323 770.224L584.443 773.072C583.974 773.456 583.398 773.744 582.715 773.936C582.032 774.128 581.328 774.224 580.603 774.224ZM571.899 760.24V757.04H583.291V760.24H571.899Z"
          fill="#808080"/>
    <path d="M993.383 133V110.6H996.807L1010.86 127.848H1009.16V110.6H1013.29V133H1009.86L995.815 115.752H997.511V133H993.383ZM1026.94 133.224C1025.04 133.224 1023.37 132.851 1021.95 132.104C1020.54 131.336 1019.44 130.291 1018.65 128.968C1017.88 127.645 1017.5 126.141 1017.5 124.456C1017.5 122.749 1017.87 121.245 1018.62 119.944C1019.39 118.621 1020.43 117.587 1021.75 116.84C1023.1 116.093 1024.62 115.72 1026.33 115.72C1027.99 115.72 1029.48 116.083 1030.78 116.808C1032.08 117.533 1033.1 118.557 1033.85 119.88C1034.6 121.203 1034.97 122.76 1034.97 124.552C1034.97 124.723 1034.96 124.915 1034.94 125.128C1034.94 125.341 1034.93 125.544 1034.91 125.736H1020.67V123.08H1032.79L1031.23 123.912C1031.25 122.931 1031.04 122.067 1030.62 121.32C1030.19 120.573 1029.6 119.987 1028.86 119.56C1028.13 119.133 1027.29 118.92 1026.33 118.92C1025.35 118.92 1024.48 119.133 1023.74 119.56C1023.01 119.987 1022.44 120.584 1022.01 121.352C1021.6 122.099 1021.4 122.984 1021.4 124.008V124.648C1021.4 125.672 1021.64 126.579 1022.11 127.368C1022.57 128.157 1023.24 128.765 1024.09 129.192C1024.94 129.619 1025.92 129.832 1027.03 129.832C1027.99 129.832 1028.86 129.683 1029.63 129.384C1030.39 129.085 1031.08 128.616 1031.67 127.976L1033.82 130.44C1033.05 131.336 1032.08 132.029 1030.91 132.52C1029.75 132.989 1028.43 133.224 1026.94 133.224ZM1036.01 133L1043.53 123.208L1043.46 125.352L1036.29 115.912H1040.74L1045.77 122.632H1044.07L1049.13 115.912H1053.45L1046.21 125.352L1046.25 123.208L1053.73 133H1049.22L1043.94 125.864L1045.61 126.088L1040.42 133H1036.01ZM1063.12 133.224C1061.24 133.224 1059.79 132.744 1058.77 131.784C1057.74 130.803 1057.23 129.363 1057.23 127.464V112.136H1061.23V127.368C1061.23 128.179 1061.43 128.808 1061.84 129.256C1062.27 129.704 1062.85 129.928 1063.6 129.928C1064.49 129.928 1065.24 129.693 1065.84 129.224L1066.96 132.072C1066.49 132.456 1065.91 132.744 1065.23 132.936C1064.55 133.128 1063.84 133.224 1063.12 133.224ZM1054.41 119.24V116.04H1065.81V119.24H1054.41ZM1084.02 133V114.12H1076.6V110.6H1095.6V114.12H1088.18V133H1084.02ZM1098.34 133V115.912H1102.34V133H1098.34ZM1100.36 113.096C1099.61 113.096 1098.99 112.861 1098.5 112.392C1098.03 111.923 1097.8 111.357 1097.8 110.696C1097.8 110.013 1098.03 109.448 1098.5 109C1098.99 108.531 1099.61 108.296 1100.36 108.296C1101.11 108.296 1101.71 108.52 1102.18 108.968C1102.67 109.395 1102.92 109.939 1102.92 110.6C1102.92 111.304 1102.68 111.901 1102.21 112.392C1101.75 112.861 1101.13 113.096 1100.36 113.096ZM1107.59 133V109.256H1111.59V133H1107.59ZM1124.12 133.224C1122.24 133.224 1120.79 132.744 1119.77 131.784C1118.74 130.803 1118.23 129.363 1118.23 127.464V112.136H1122.23V127.368C1122.23 128.179 1122.43 128.808 1122.84 129.256C1123.27 129.704 1123.85 129.928 1124.6 129.928C1125.49 129.928 1126.24 129.693 1126.84 129.224L1127.96 132.072C1127.49 132.456 1126.91 132.744 1126.23 132.936C1125.55 133.128 1124.84 133.224 1124.12 133.224ZM1115.41 119.24V116.04H1126.81V119.24H1115.41Z"
          fill="#808080"/>
    <path d="M31.9611 334V311.6H41.1771C43.1611 311.6 44.8571 311.92 46.2651 312.56C47.6945 313.2 48.7931 314.117 49.5611 315.312C50.3291 316.507 50.7131 317.925 50.7131 319.568C50.7131 321.211 50.3291 322.629 49.5611 323.824C48.7931 325.019 47.6945 325.936 46.2651 326.576C44.8571 327.216 43.1611 327.536 41.1771 327.536H34.2651L36.1211 325.584V334H31.9611ZM36.1211 326.032L34.2651 324.016H40.9851C42.8198 324.016 44.1958 323.632 45.1131 322.864C46.0518 322.075 46.5211 320.976 46.5211 319.568C46.5211 318.139 46.0518 317.04 45.1131 316.272C44.1958 315.504 42.8198 315.12 40.9851 315.12H34.2651L36.1211 313.072V326.032ZM54.3271 334V316.912H58.1351V321.616L57.6871 320.24C58.1991 319.088 58.9991 318.213 60.0871 317.616C61.1965 317.019 62.5725 316.72 64.2151 316.72V320.528C64.0445 320.485 63.8845 320.464 63.7351 320.464C63.5858 320.443 63.4365 320.432 63.2871 320.432C61.7725 320.432 60.5671 320.88 59.6711 321.776C58.7751 322.651 58.3271 323.963 58.3271 325.712V334H54.3271ZM75.4841 334.224C73.5855 334.224 71.9215 333.851 70.4921 333.104C69.0841 332.336 67.9855 331.291 67.1961 329.968C66.4281 328.645 66.0441 327.141 66.0441 325.456C66.0441 323.749 66.4175 322.245 67.1641 320.944C67.9321 319.621 68.9775 318.587 70.3001 317.84C71.6441 317.093 73.1695 316.72 74.8761 316.72C76.5401 316.72 78.0228 317.083 79.3241 317.808C80.6255 318.533 81.6495 319.557 82.3961 320.88C83.1428 322.203 83.5161 323.76 83.5161 325.552C83.5161 325.723 83.5055 325.915 83.4841 326.128C83.4841 326.341 83.4735 326.544 83.4521 326.736H69.2121V324.08H81.3401L79.7721 324.912C79.7935 323.931 79.5908 323.067 79.1641 322.32C78.7375 321.573 78.1508 320.987 77.4041 320.56C76.6788 320.133 75.8361 319.92 74.8761 319.92C73.8948 319.92 73.0308 320.133 72.2841 320.56C71.5588 320.987 70.9828 321.584 70.5561 322.352C70.1508 323.099 69.9481 323.984 69.9481 325.008V325.648C69.9481 326.672 70.1828 327.579 70.6521 328.368C71.1215 329.157 71.7828 329.765 72.6361 330.192C73.4895 330.619 74.4708 330.832 75.5801 330.832C76.5401 330.832 77.4041 330.683 78.1721 330.384C78.9401 330.085 79.6228 329.616 80.2201 328.976L82.3641 331.44C81.5961 332.336 80.6255 333.029 79.4521 333.52C78.3001 333.989 76.9775 334.224 75.4841 334.224ZM91.5899 334L84.2619 316.912H88.4219L94.7259 331.984H92.6779L99.2059 316.912H103.046L95.7179 334H91.5899ZM105.546 334V316.912H109.546V334H105.546ZM107.562 314.096C106.815 314.096 106.197 313.861 105.706 313.392C105.237 312.923 105.002 312.357 105.002 311.696C105.002 311.013 105.237 310.448 105.706 310C106.197 309.531 106.815 309.296 107.562 309.296C108.309 309.296 108.917 309.52 109.386 309.968C109.877 310.395 110.122 310.939 110.122 311.6C110.122 312.304 109.887 312.901 109.418 313.392C108.949 313.861 108.33 314.096 107.562 314.096ZM122.476 334.224C120.727 334.224 119.169 333.851 117.804 333.104C116.439 332.336 115.361 331.291 114.572 329.968C113.783 328.645 113.388 327.141 113.388 325.456C113.388 323.749 113.783 322.245 114.572 320.944C115.361 319.621 116.439 318.587 117.804 317.84C119.169 317.093 120.727 316.72 122.476 316.72C124.247 316.72 125.815 317.093 127.18 317.84C128.567 318.587 129.644 319.611 130.412 320.912C131.201 322.213 131.596 323.728 131.596 325.456C131.596 327.141 131.201 328.645 130.412 329.968C129.644 331.291 128.567 332.336 127.18 333.104C125.815 333.851 124.247 334.224 122.476 334.224ZM122.476 330.8C123.457 330.8 124.332 330.587 125.1 330.16C125.868 329.733 126.465 329.115 126.892 328.304C127.34 327.493 127.564 326.544 127.564 325.456C127.564 324.347 127.34 323.397 126.892 322.608C126.465 321.797 125.868 321.179 125.1 320.752C124.332 320.325 123.468 320.112 122.508 320.112C121.527 320.112 120.652 320.325 119.884 320.752C119.137 321.179 118.54 321.797 118.092 322.608C117.644 323.397 117.42 324.347 117.42 325.456C117.42 326.544 117.644 327.493 118.092 328.304C118.54 329.115 119.137 329.733 119.884 330.16C120.652 330.587 121.516 330.8 122.476 330.8ZM142.653 334.224C141.202 334.224 139.922 333.957 138.813 333.424C137.704 332.869 136.84 332.037 136.221 330.928C135.602 329.797 135.293 328.379 135.293 326.672V316.912H139.293V326.128C139.293 327.664 139.634 328.816 140.317 329.584C141.021 330.331 142.013 330.704 143.293 330.704C144.232 330.704 145.042 330.512 145.725 330.128C146.429 329.744 146.973 329.168 147.357 328.4C147.762 327.632 147.965 326.683 147.965 325.552V316.912H151.965V334H148.157V329.392L148.829 330.8C148.253 331.909 147.41 332.763 146.301 333.36C145.192 333.936 143.976 334.224 142.653 334.224ZM162.482 334.224C161.053 334.224 159.677 334.043 158.354 333.68C157.053 333.296 156.018 332.837 155.25 332.304L156.786 329.264C157.554 329.755 158.471 330.16 159.538 330.48C160.605 330.8 161.671 330.96 162.738 330.96C163.997 330.96 164.903 330.789 165.458 330.448C166.034 330.107 166.322 329.648 166.322 329.072C166.322 328.603 166.13 328.251 165.746 328.016C165.362 327.76 164.861 327.568 164.242 327.44C163.623 327.312 162.93 327.195 162.162 327.088C161.415 326.981 160.658 326.843 159.89 326.672C159.143 326.48 158.461 326.213 157.842 325.872C157.223 325.509 156.722 325.029 156.338 324.432C155.954 323.835 155.762 323.045 155.762 322.064C155.762 320.976 156.071 320.037 156.69 319.248C157.309 318.437 158.173 317.819 159.282 317.392C160.413 316.944 161.746 316.72 163.282 316.72C164.434 316.72 165.597 316.848 166.77 317.104C167.943 317.36 168.914 317.723 169.682 318.192L168.146 321.232C167.335 320.741 166.514 320.411 165.682 320.24C164.871 320.048 164.061 319.952 163.25 319.952C162.034 319.952 161.127 320.133 160.53 320.496C159.954 320.859 159.666 321.317 159.666 321.872C159.666 322.384 159.858 322.768 160.242 323.024C160.626 323.28 161.127 323.483 161.746 323.632C162.365 323.781 163.047 323.909 163.794 324.016C164.562 324.101 165.319 324.24 166.066 324.432C166.813 324.624 167.495 324.891 168.114 325.232C168.754 325.552 169.266 326.011 169.65 326.608C170.034 327.205 170.226 327.984 170.226 328.944C170.226 330.011 169.906 330.939 169.266 331.728C168.647 332.517 167.762 333.136 166.61 333.584C165.458 334.011 164.082 334.224 162.482 334.224ZM187.443 334V315.12H180.019V311.6H199.027V315.12H191.603V334H187.443ZM201.765 334V316.912H205.765V334H201.765ZM203.781 314.096C203.034 314.096 202.415 313.861 201.925 313.392C201.455 312.923 201.221 312.357 201.221 311.696C201.221 311.013 201.455 310.448 201.925 310C202.415 309.531 203.034 309.296 203.781 309.296C204.527 309.296 205.135 309.52 205.605 309.968C206.095 310.395 206.341 310.939 206.341 311.6C206.341 312.304 206.106 312.901 205.637 313.392C205.167 313.861 204.549 314.096 203.781 314.096ZM211.015 334V310.256H215.015V334H211.015ZM227.54 334.224C225.663 334.224 224.212 333.744 223.188 332.784C222.164 331.803 221.652 330.363 221.652 328.464V313.136H225.652V328.368C225.652 329.179 225.855 329.808 226.26 330.256C226.687 330.704 227.274 330.928 228.02 330.928C228.916 330.928 229.663 330.693 230.26 330.224L231.38 333.072C230.911 333.456 230.335 333.744 229.652 333.936C228.97 334.128 228.266 334.224 227.54 334.224ZM218.836 320.24V317.04H230.228V320.24H218.836Z"
          fill="#808080"/>
    <path d="M202 279L230.077 285.711L221.85 258.04L202 279ZM490 319L491.912 317.39C463.217 283.314 371.045 229.914 222.919 270.173L223.575 272.586L224.231 274.998C370.721 235.183 460.8 288.207 488.088 320.61L490 319Z"
          fill="#808080"/>
    <path d="M552.985 698.983L580.7 690.909L559.851 670.944L552.985 698.983ZM607.145 503L604.702 503.528C622.593 586.404 592.612 649.1 566.601 681.161L568.542 682.736L570.484 684.311C597.247 651.322 627.863 587.118 609.589 502.472L607.145 503Z"
          fill="#808080"/>
    <path d="M965.987 127.046L943.669 108.737L938.971 137.22L965.987 127.046ZM706 294.42L708.08 295.807C802.086 154.878 894.335 123.938 943.696 125.884L943.795 123.386L943.893 120.888C892.237 118.852 798.538 151.186 703.92 293.033L706 294.42Z"
          fill="#808080"/>
</svg>
