<svg width="635" height="634" viewBox="0 0 635 634" fill="none" xmlns="http://www.w3.org/2000/svg">
<circle cx="317.5" cy="316.5" r="238.5" fill="white"/>
<path fill-rule="evenodd" clip-rule="evenodd" d="M463.386 446.186C453.385 439.814 450.442 426.541 456.814 416.539L465.369 403.111L472.287 389.819L478.022 375.976L482.527 361.685L485.771 347.056L487.726 332.2L488.38 317.23L487.726 302.261L485.771 287.405L482.527 272.776L478.022 258.485L472.287 244.641L465.369 231.35L457.318 218.713L448.196 206.825L438.073 195.778L427.025 185.654L415.137 176.533L402.5 168.482L389.209 161.563L375.365 155.829L361.075 151.323L346.446 148.08L331.59 146.124L316.62 145.47L301.65 146.124L286.794 148.08L272.165 151.323L257.874 155.829L244.031 161.563L230.74 168.482L218.102 176.533L206.215 185.654L195.167 195.778L185.044 206.825L175.922 218.713L167.871 231.35L160.952 244.641L155.218 258.485L150.712 272.776L147.469 287.405L145.513 302.26L144.86 317.231L145.513 332.2L147.469 347.056L150.712 361.686L155.218 375.976L160.952 389.819L167.871 403.111L175.922 415.748L185.044 427.636L195.8 439.374C203.812 448.118 203.219 461.701 194.476 469.712C185.732 477.724 172.15 477.131 164.138 468.388L152.115 455.267L140.71 440.404L130.644 424.604L121.994 407.986L114.824 390.678L109.191 372.811L105.136 354.521L102.691 335.947L101.873 317.23L102.691 298.514L105.136 279.94L109.191 261.65L114.824 243.783L121.994 226.475L130.644 209.857L140.71 194.057L152.115 179.194L164.771 165.382L178.584 152.725L193.446 141.321L209.247 131.255L225.864 122.604L243.172 115.435L261.039 109.801L279.329 105.747L297.903 103.301L316.62 102.484L335.336 103.301L353.91 105.747L372.2 109.801L390.067 115.435L407.376 122.604L423.993 131.255L439.793 141.321L454.656 152.725L468.468 165.382L481.125 179.194L492.53 194.057L502.596 209.857L511.246 226.475L518.415 243.783L524.049 261.65L528.104 279.94L530.549 298.514L531.366 317.23L530.549 335.947L528.104 354.521L524.049 372.811L518.415 390.678L511.246 407.986L502.596 424.604L493.033 439.613C486.662 449.615 473.388 452.558 463.386 446.186Z" fill="#FF3B30"/>
<path d="M229.943 286V232.4L232.503 235.12H216.743V230H235.703V286H229.943ZM253.41 286.4C252.236 286.4 251.223 285.973 250.37 285.12C249.57 284.267 249.17 283.227 249.17 282C249.17 280.72 249.57 279.68 250.37 278.88C251.223 278.08 252.236 277.68 253.41 277.68C254.583 277.68 255.57 278.08 256.37 278.88C257.223 279.68 257.65 280.72 257.65 282C257.65 283.227 257.223 284.267 256.37 285.12C255.57 285.973 254.583 286.4 253.41 286.4ZM287.503 286.48C283.183 286.48 279.343 285.36 275.983 283.12C272.623 280.827 269.983 277.573 268.063 273.36C266.143 269.093 265.183 263.973 265.183 258C265.183 252.027 266.143 246.933 268.063 242.72C269.983 238.453 272.623 235.2 275.983 232.96C279.343 230.667 283.183 229.52 287.503 229.52C291.823 229.52 295.663 230.667 299.023 232.96C302.383 235.2 305.023 238.453 306.943 242.72C308.917 246.933 309.903 252.027 309.903 258C309.903 263.973 308.917 269.093 306.943 273.36C305.023 277.573 302.383 280.827 299.023 283.12C295.663 285.36 291.823 286.48 287.503 286.48ZM287.503 281.2C290.81 281.2 293.69 280.32 296.143 278.56C298.597 276.747 300.517 274.133 301.903 270.72C303.29 267.253 303.983 263.013 303.983 258C303.983 252.987 303.29 248.773 301.903 245.36C300.517 241.893 298.597 239.28 296.143 237.52C293.69 235.707 290.81 234.8 287.503 234.8C284.303 234.8 281.45 235.707 278.943 237.52C276.437 239.28 274.49 241.893 273.103 245.36C271.717 248.773 271.023 252.987 271.023 258C271.023 263.013 271.717 267.253 273.103 270.72C274.49 274.133 276.437 276.747 278.943 278.56C281.45 280.32 284.303 281.2 287.503 281.2ZM340.472 286.48C336.152 286.48 332.312 285.36 328.952 283.12C325.592 280.827 322.952 277.573 321.032 273.36C319.112 269.093 318.152 263.973 318.152 258C318.152 252.027 319.112 246.933 321.032 242.72C322.952 238.453 325.592 235.2 328.952 232.96C332.312 230.667 336.152 229.52 340.472 229.52C344.792 229.52 348.632 230.667 351.992 232.96C355.352 235.2 357.992 238.453 359.912 242.72C361.886 246.933 362.872 252.027 362.872 258C362.872 263.973 361.886 269.093 359.912 273.36C357.992 277.573 355.352 280.827 351.992 283.12C348.632 285.36 344.792 286.48 340.472 286.48ZM340.472 281.2C343.779 281.2 346.659 280.32 349.112 278.56C351.566 276.747 353.486 274.133 354.872 270.72C356.259 267.253 356.952 263.013 356.952 258C356.952 252.987 356.259 248.773 354.872 245.36C353.486 241.893 351.566 239.28 349.112 237.52C346.659 235.707 343.779 234.8 340.472 234.8C337.272 234.8 334.419 235.707 331.912 237.52C329.406 239.28 327.459 241.893 326.072 245.36C324.686 248.773 323.992 252.987 323.992 258C323.992 263.013 324.686 267.253 326.072 270.72C327.459 274.133 329.406 276.747 331.912 278.56C334.419 280.32 337.272 281.2 340.472 281.2ZM392.401 286.48C387.921 286.48 384.054 285.84 380.801 284.56C377.601 283.28 375.121 281.44 373.361 279.04C371.654 276.587 370.801 273.707 370.801 270.4C370.801 267.2 371.628 264.48 373.281 262.24C374.988 259.947 377.441 258.187 380.641 256.96C383.894 255.733 387.814 255.12 392.401 255.12C396.934 255.12 400.828 255.733 404.081 256.96C407.334 258.187 409.814 259.947 411.521 262.24C413.281 264.48 414.161 267.2 414.161 270.4C414.161 273.707 413.281 276.587 411.521 279.04C409.761 281.44 407.254 283.28 404.001 284.56C400.748 285.84 396.881 286.48 392.401 286.48ZM392.401 281.6C397.361 281.6 401.228 280.587 404.001 278.56C406.828 276.533 408.241 273.787 408.241 270.32C408.241 266.853 406.828 264.133 404.001 262.16C401.228 260.133 397.361 259.12 392.401 259.12C387.441 259.12 383.574 260.133 380.801 262.16C378.028 264.133 376.641 266.853 376.641 270.32C376.641 273.787 378.028 276.533 380.801 278.56C383.574 280.587 387.441 281.6 392.401 281.6ZM392.401 258.4C388.241 258.4 384.694 257.84 381.761 256.72C378.881 255.6 376.668 254 375.121 251.92C373.574 249.787 372.801 247.253 372.801 244.32C372.801 241.227 373.601 238.587 375.201 236.4C376.854 234.16 379.148 232.453 382.081 231.28C385.014 230.107 388.454 229.52 392.401 229.52C396.348 229.52 399.788 230.107 402.721 231.28C405.708 232.453 408.028 234.16 409.681 236.4C411.334 238.587 412.161 241.227 412.161 244.32C412.161 247.253 411.388 249.787 409.841 251.92C408.294 254 406.028 255.6 403.041 256.72C400.108 257.84 396.561 258.4 392.401 258.4ZM392.401 254.56C396.774 254.56 400.188 253.653 402.641 251.84C405.094 250.027 406.321 247.6 406.321 244.56C406.321 241.36 405.041 238.88 402.481 237.12C399.974 235.307 396.614 234.4 392.401 234.4C388.188 234.4 384.828 235.307 382.321 237.12C379.814 238.88 378.561 241.333 378.561 244.48C378.561 247.573 379.761 250.027 382.161 251.84C384.614 253.653 388.028 254.56 392.401 254.56Z" fill="#231F20"/>
<path d="M253.547 360.264C251.317 360.264 249.205 359.912 247.211 359.208C245.245 358.475 243.661 357.507 242.459 356.304L243.999 353.796C244.996 354.823 246.331 355.673 248.003 356.348C249.704 357.023 251.552 357.36 253.547 357.36C256.099 357.36 258.049 356.803 259.399 355.688C260.777 354.573 261.467 353.077 261.467 351.2C261.467 349.323 260.792 347.827 259.443 346.712C258.123 345.597 256.025 345.04 253.151 345.04H250.951V342.708L260.455 330.784L260.895 332.016H243.735V329.2H263.535V331.444L254.031 343.368L252.491 342.356H253.678C257.375 342.356 260.132 343.177 261.951 344.82C263.799 346.463 264.723 348.575 264.723 351.156C264.723 352.887 264.312 354.441 263.491 355.82C262.669 357.199 261.423 358.284 259.751 359.076C258.108 359.868 256.04 360.264 253.547 360.264ZM268.4 360V357.756L281.204 345.216C282.377 344.072 283.257 343.075 283.844 342.224C284.43 341.344 284.826 340.523 285.032 339.76C285.237 338.997 285.34 338.279 285.34 337.604C285.34 335.815 284.724 334.407 283.492 333.38C282.289 332.353 280.5 331.84 278.124 331.84C276.305 331.84 274.692 332.119 273.284 332.676C271.905 333.233 270.717 334.099 269.72 335.272L267.476 333.336C268.678 331.928 270.218 330.843 272.096 330.08C273.973 329.317 276.07 328.936 278.388 328.936C280.47 328.936 282.274 329.273 283.8 329.948C285.325 330.593 286.498 331.547 287.32 332.808C288.17 334.069 288.596 335.551 288.596 337.252C288.596 338.249 288.449 339.232 288.156 340.2C287.892 341.168 287.393 342.195 286.66 343.28C285.956 344.336 284.914 345.539 283.536 346.888L271.788 358.416L270.908 357.184H290.004V360H268.4ZM296.785 360.22C296.14 360.22 295.582 359.985 295.113 359.516C294.673 359.047 294.453 358.475 294.453 357.8C294.453 357.096 294.673 356.524 295.113 356.084C295.582 355.644 296.14 355.424 296.785 355.424C297.43 355.424 297.973 355.644 298.413 356.084C298.882 356.524 299.117 357.096 299.117 357.8C299.117 358.475 298.882 359.047 298.413 359.516C297.973 359.985 297.43 360.22 296.785 360.22ZM315.867 360.264C313.403 360.264 311.276 359.912 309.487 359.208C307.727 358.504 306.363 357.492 305.395 356.172C304.456 354.823 303.987 353.239 303.987 351.42C303.987 349.66 304.442 348.164 305.351 346.932C306.29 345.671 307.639 344.703 309.399 344.028C311.188 343.353 313.344 343.016 315.867 343.016C318.36 343.016 320.502 343.353 322.291 344.028C324.08 344.703 325.444 345.671 326.383 346.932C327.351 348.164 327.835 349.66 327.835 351.42C327.835 353.239 327.351 354.823 326.383 356.172C325.415 357.492 324.036 358.504 322.247 359.208C320.458 359.912 318.331 360.264 315.867 360.264ZM315.867 357.58C318.595 357.58 320.722 357.023 322.247 355.908C323.802 354.793 324.579 353.283 324.579 351.376C324.579 349.469 323.802 347.973 322.247 346.888C320.722 345.773 318.595 345.216 315.867 345.216C313.139 345.216 311.012 345.773 309.487 346.888C307.962 347.973 307.199 349.469 307.199 351.376C307.199 353.283 307.962 354.793 309.487 355.908C311.012 357.023 313.139 357.58 315.867 357.58ZM315.867 344.82C313.579 344.82 311.628 344.512 310.015 343.896C308.431 343.28 307.214 342.4 306.363 341.256C305.512 340.083 305.087 338.689 305.087 337.076C305.087 335.375 305.527 333.923 306.407 332.72C307.316 331.488 308.578 330.549 310.191 329.904C311.804 329.259 313.696 328.936 315.867 328.936C318.038 328.936 319.93 329.259 321.543 329.904C323.186 330.549 324.462 331.488 325.371 332.72C326.28 333.923 326.735 335.375 326.735 337.076C326.735 338.689 326.31 340.083 325.459 341.256C324.608 342.4 323.362 343.28 321.719 343.896C320.106 344.512 318.155 344.82 315.867 344.82ZM315.867 342.708C318.272 342.708 320.15 342.209 321.499 341.212C322.848 340.215 323.523 338.88 323.523 337.208C323.523 335.448 322.819 334.084 321.411 333.116C320.032 332.119 318.184 331.62 315.867 331.62C313.55 331.62 311.702 332.119 310.323 333.116C308.944 334.084 308.255 335.433 308.255 337.164C308.255 338.865 308.915 340.215 310.235 341.212C311.584 342.209 313.462 342.708 315.867 342.708ZM350.645 342.928C349.355 342.928 348.167 342.62 347.081 342.004C346.025 341.359 345.189 340.523 344.573 339.496C343.957 338.44 343.649 337.252 343.649 335.932C343.649 334.641 343.957 333.468 344.573 332.412C345.189 331.356 346.025 330.52 347.081 329.904C348.167 329.288 349.355 328.98 350.645 328.98C351.965 328.98 353.153 329.288 354.209 329.904C355.295 330.52 356.145 331.356 356.761 332.412C357.377 333.468 357.685 334.641 357.685 335.932C357.685 337.223 357.377 338.396 356.761 339.452C356.145 340.508 355.295 341.359 354.209 342.004C353.153 342.62 351.965 342.928 350.645 342.928ZM350.689 341.08C351.628 341.08 352.479 340.845 353.241 340.376C354.033 339.907 354.649 339.291 355.089 338.528C355.529 337.765 355.749 336.9 355.749 335.932C355.749 334.964 355.529 334.099 355.089 333.336C354.649 332.544 354.033 331.928 353.241 331.488C352.479 331.048 351.628 330.828 350.689 330.828C349.721 330.828 348.841 331.048 348.049 331.488C347.287 331.928 346.685 332.544 346.245 333.336C345.805 334.099 345.585 334.964 345.585 335.932C345.585 336.9 345.805 337.78 346.245 338.572C346.685 339.335 347.287 339.951 348.049 340.42C348.841 340.86 349.721 341.08 350.689 341.08ZM378.705 360.264C376.387 360.264 374.246 359.883 372.281 359.12C370.315 358.328 368.614 357.228 367.177 355.82C365.739 354.412 364.61 352.755 363.789 350.848C362.997 348.941 362.601 346.859 362.601 344.6C362.601 342.341 362.997 340.259 363.789 338.352C364.61 336.445 365.739 334.788 367.177 333.38C368.643 331.972 370.359 330.887 372.325 330.124C374.29 329.332 376.431 328.936 378.749 328.936C380.978 328.936 383.075 329.317 385.041 330.08C387.006 330.813 388.663 331.928 390.013 333.424L387.945 335.492C386.683 334.201 385.29 333.277 383.765 332.72C382.239 332.133 380.597 331.84 378.837 331.84C376.989 331.84 375.273 332.163 373.689 332.808C372.105 333.424 370.726 334.319 369.553 335.492C368.379 336.636 367.455 337.985 366.78 339.54C366.135 341.065 365.812 342.752 365.812 344.6C365.812 346.448 366.135 348.149 366.78 349.704C367.455 351.229 368.379 352.579 369.553 353.752C370.726 354.896 372.105 355.791 373.689 356.436C375.273 357.052 376.989 357.36 378.837 357.36C380.597 357.36 382.239 357.067 383.765 356.48C385.29 355.893 386.683 354.955 387.945 353.664L390.013 355.732C388.663 357.228 387.006 358.357 385.041 359.12C383.075 359.883 380.963 360.264 378.705 360.264Z" fill="#231F20"/>
<path d="M271.272 435V416.24L272.168 417.192H266.652V415.4H273.288V435H271.272ZM277.61 435V433.572L285.758 425.592C286.504 424.864 287.064 424.229 287.438 423.688C287.811 423.128 288.063 422.605 288.194 422.12C288.324 421.635 288.39 421.177 288.39 420.748C288.39 419.609 287.998 418.713 287.214 418.06C286.448 417.407 285.31 417.08 283.798 417.08C282.64 417.08 281.614 417.257 280.718 417.612C279.84 417.967 279.084 418.517 278.45 419.264L277.022 418.032C277.787 417.136 278.767 416.445 279.962 415.96C281.156 415.475 282.491 415.232 283.966 415.232C285.291 415.232 286.439 415.447 287.41 415.876C288.38 416.287 289.127 416.893 289.65 417.696C290.191 418.499 290.462 419.441 290.462 420.524C290.462 421.159 290.368 421.784 290.182 422.4C290.014 423.016 289.696 423.669 289.23 424.36C288.782 425.032 288.119 425.797 287.242 426.656L279.766 433.992L279.206 433.208H291.358V435H277.61ZM295.673 435.14C295.262 435.14 294.908 434.991 294.609 434.692C294.329 434.393 294.189 434.029 294.189 433.6C294.189 433.152 294.329 432.788 294.609 432.508C294.908 432.228 295.262 432.088 295.673 432.088C296.084 432.088 296.429 432.228 296.709 432.508C297.008 432.788 297.157 433.152 297.157 433.6C297.157 434.029 297.008 434.393 296.709 434.692C296.429 434.991 296.084 435.14 295.673 435.14ZM306.283 435.168C304.883 435.168 303.548 434.944 302.279 434.496C301.009 434.029 300.001 433.413 299.255 432.648L300.235 431.052C300.851 431.705 301.691 432.247 302.755 432.676C303.837 433.105 305.004 433.32 306.255 433.32C307.916 433.32 309.176 432.956 310.035 432.228C310.912 431.481 311.351 430.511 311.351 429.316C311.351 428.476 311.145 427.757 310.735 427.16C310.343 426.544 309.671 426.068 308.719 425.732C307.767 425.396 306.46 425.228 304.799 425.228H300.627L301.635 415.4H312.359V417.192H302.447L303.483 416.212L302.615 424.444L301.579 423.436H305.247C307.225 423.436 308.812 423.679 310.007 424.164C311.201 424.649 312.06 425.331 312.583 426.208C313.124 427.067 313.395 428.075 313.395 429.232C313.395 430.333 313.133 431.341 312.611 432.256C312.088 433.152 311.304 433.861 310.259 434.384C309.213 434.907 307.888 435.168 306.283 435.168ZM325.018 435V415.4H332.354C334.016 415.4 335.444 415.671 336.638 416.212C337.833 416.735 338.748 417.5 339.382 418.508C340.036 419.497 340.362 420.701 340.362 422.12C340.362 423.501 340.036 424.696 339.382 425.704C338.748 426.693 337.833 427.459 336.638 428C335.444 428.541 334.016 428.812 332.354 428.812H326.166L327.09 427.832V435H325.018ZM327.09 428L326.166 426.992H332.298C334.258 426.992 335.742 426.572 336.75 425.732C337.777 424.873 338.29 423.669 338.29 422.12C338.29 420.552 337.777 419.339 336.75 418.48C335.742 417.621 334.258 417.192 332.298 417.192H326.166L327.09 416.212V428ZM350.52 435.168C349.064 435.168 347.664 434.935 346.32 434.468C344.994 433.983 343.968 433.367 343.24 432.62L344.052 431.024C344.742 431.696 345.666 432.265 346.824 432.732C348 433.18 349.232 433.404 350.52 433.404C351.752 433.404 352.75 433.255 353.516 432.956C354.3 432.639 354.869 432.219 355.224 431.696C355.597 431.173 355.784 430.595 355.784 429.96C355.784 429.195 355.56 428.579 355.112 428.112C354.682 427.645 354.113 427.281 353.404 427.02C352.694 426.74 351.91 426.497 351.052 426.292C350.193 426.087 349.334 425.872 348.476 425.648C347.617 425.405 346.824 425.088 346.096 424.696C345.386 424.304 344.808 423.791 344.36 423.156C343.93 422.503 343.716 421.653 343.716 420.608C343.716 419.637 343.968 418.751 344.472 417.948C344.994 417.127 345.788 416.473 346.852 415.988C347.916 415.484 349.278 415.232 350.94 415.232C352.041 415.232 353.133 415.391 354.216 415.708C355.298 416.007 356.232 416.427 357.016 416.968L356.316 418.62C355.476 418.06 354.58 417.649 353.628 417.388C352.694 417.127 351.789 416.996 350.912 416.996C349.736 416.996 348.765 417.155 348 417.472C347.234 417.789 346.665 418.219 346.292 418.76C345.937 419.283 345.76 419.88 345.76 420.552C345.76 421.317 345.974 421.933 346.404 422.4C346.852 422.867 347.43 423.231 348.14 423.492C348.868 423.753 349.661 423.987 350.52 424.192C351.378 424.397 352.228 424.621 353.068 424.864C353.926 425.107 354.71 425.424 355.42 425.816C356.148 426.189 356.726 426.693 357.156 427.328C357.604 427.963 357.828 428.793 357.828 429.82C357.828 430.772 357.566 431.659 357.044 432.48C356.521 433.283 355.718 433.936 354.636 434.44C353.572 434.925 352.2 435.168 350.52 435.168ZM362.342 435V415.4H364.414V435H362.342Z" fill="#808080"/>
<path d="M264.422 493V472.648H256.55V470.6H274.662V472.648H266.79V493H264.422ZM277.965 493V476.2H280.237V493H277.965ZM279.117 472.488C278.648 472.488 278.253 472.328 277.933 472.008C277.613 471.688 277.453 471.304 277.453 470.856C277.453 470.408 277.613 470.035 277.933 469.736C278.253 469.416 278.648 469.256 279.117 469.256C279.586 469.256 279.981 469.405 280.301 469.704C280.621 470.003 280.781 470.376 280.781 470.824C280.781 471.293 280.621 471.688 280.301 472.008C280.002 472.328 279.608 472.488 279.117 472.488ZM286.559 493V469.256H288.831V493H286.559ZM300.558 493.16C298.979 493.16 297.763 492.733 296.91 491.88C296.057 491.027 295.63 489.821 295.63 488.264V472.488H297.902V488.136C297.902 489.117 298.147 489.875 298.638 490.408C299.15 490.941 299.875 491.208 300.814 491.208C301.817 491.208 302.649 490.92 303.31 490.344L304.11 491.976C303.662 492.381 303.118 492.68 302.478 492.872C301.859 493.064 301.219 493.16 300.558 493.16ZM292.622 478.088V476.2H303.022V478.088H292.622ZM317.101 493V470.6H325.485C327.384 470.6 329.016 470.909 330.381 471.528C331.746 472.125 332.792 473 333.517 474.152C334.264 475.283 334.637 476.659 334.637 478.28C334.637 479.859 334.264 481.224 333.517 482.376C332.792 483.507 331.746 484.381 330.381 485C329.016 485.597 327.384 485.896 325.485 485.896H318.413L319.469 484.808V493H317.101ZM332.397 493L326.637 484.872H329.197L334.989 493H332.397ZM319.469 485L318.413 483.88H325.421C327.661 483.88 329.357 483.389 330.509 482.408C331.682 481.427 332.269 480.051 332.269 478.28C332.269 476.488 331.682 475.101 330.509 474.12C329.357 473.139 327.661 472.648 325.421 472.648H318.413L319.469 471.528V485ZM346.882 493.16C345.133 493.16 343.597 492.797 342.274 492.072C340.951 491.325 339.917 490.312 339.17 489.032C338.423 487.731 338.05 486.248 338.05 484.584C338.05 482.92 338.402 481.448 339.106 480.168C339.831 478.888 340.813 477.885 342.05 477.16C343.309 476.413 344.717 476.04 346.274 476.04C347.853 476.04 349.25 476.403 350.466 477.128C351.703 477.832 352.674 478.835 353.378 480.136C354.082 481.416 354.434 482.899 354.434 484.584C354.434 484.691 354.423 484.808 354.402 484.936C354.402 485.043 354.402 485.16 354.402 485.288H339.778V483.592H353.186L352.29 484.264C352.29 483.048 352.023 481.971 351.49 481.032C350.978 480.072 350.274 479.325 349.378 478.792C348.482 478.259 347.447 477.992 346.274 477.992C345.122 477.992 344.087 478.259 343.17 478.792C342.253 479.325 341.538 480.072 341.026 481.032C340.514 481.992 340.258 483.091 340.258 484.328V484.68C340.258 485.96 340.535 487.091 341.09 488.072C341.666 489.032 342.455 489.789 343.458 490.344C344.482 490.877 345.645 491.144 346.946 491.144C347.97 491.144 348.919 490.963 349.794 490.6C350.69 490.237 351.458 489.683 352.098 488.936L353.378 490.408C352.631 491.304 351.693 491.987 350.562 492.456C349.453 492.925 348.226 493.16 346.882 493.16ZM365.747 493.16C364.147 493.16 362.707 492.797 361.427 492.072C360.168 491.347 359.176 490.344 358.451 489.064C357.725 487.763 357.363 486.269 357.363 484.584C357.363 482.877 357.725 481.384 358.451 480.104C359.176 478.824 360.168 477.832 361.427 477.128C362.707 476.403 364.147 476.04 365.747 476.04C367.219 476.04 368.531 476.371 369.683 477.032C370.856 477.693 371.784 478.664 372.467 479.944C373.171 481.203 373.523 482.749 373.523 484.584C373.523 486.397 373.181 487.944 372.499 489.224C371.816 490.504 370.888 491.485 369.715 492.168C368.563 492.829 367.24 493.16 365.747 493.16ZM365.907 491.144C367.101 491.144 368.168 490.877 369.107 490.344C370.067 489.789 370.813 489.021 371.347 488.04C371.901 487.037 372.179 485.885 372.179 484.584C372.179 483.261 371.901 482.109 371.347 481.128C370.813 480.147 370.067 479.389 369.107 478.856C368.168 478.301 367.101 478.024 365.907 478.024C364.733 478.024 363.677 478.301 362.739 478.856C361.8 479.389 361.053 480.147 360.499 481.128C359.944 482.109 359.667 483.261 359.667 484.584C359.667 485.885 359.944 487.037 360.499 488.04C361.053 489.021 361.8 489.789 362.739 490.344C363.677 490.877 364.733 491.144 365.907 491.144ZM372.243 493V487.944L372.467 484.552L372.147 481.16V469.256H374.419V493H372.243Z" fill="#231F20"/>
<path d="M317.5 0C142.142 0 0 142.134 0 317.483C0 434.75 63.638 556.121 158.181 623.722C167.425 630.31 178.393 634 189.741 634H445.224C456.572 634 467.575 630.31 476.785 623.722C571.362 556.121 634.965 434.75 634.965 317.483C635 142.134 492.858 0 317.5 0ZM317.5 555.535C185.775 555.535 78.987 448.753 78.987 317.034C78.987 185.316 185.775 78.4998 317.5 78.4998C449.225 78.4998 556.013 185.282 556.013 317C556.013 448.718 449.225 555.5 317.5 555.5V555.535Z" fill="#231F20"/>
</svg>
